<svg xmlns="http://www.w3.org/2000/svg" xmlns:xlink="http://www.w3.org/1999/xlink" width="812.5" height="861.72" viewBox="0 0 812.5 861.72">
  <defs>
    <style>
      .cls-1 {
        filter: url(#AI_BevelShadow_1);
      }

      .cls-2 {
        fill: url(#radial-gradient);
      }

      .cls-3 {
        fill: none;
      }

      .cls-3, .cls-4, .cls-5, .cls-6, .cls-7 {
        stroke: #231f20;
        stroke-miterlimit: 10;
      }

      .cls-4 {
        fill: #fff;
      }

      .cls-5 {
        fill: #231f20;
      }

      .cls-6 {
        fill: url(#radial-gradient-2);
      }

      .cls-7 {
        fill: #414042;
      }
    </style>
    <filter id="AI_BevelShadow_1" x="-20%" y="-20%" width="140%" height="140%" name="AI_BevelShadow_1">
      <feGaussianBlur result="blur" stdDeviation="4" in="SourceAlpha"/>
      <feOffset result="offsetBlur" dx="4" dy="4" in="blur"/>
      <feSpecularLighting result="specOut" surfaceScale="5" specularExponent="10" in="blur">
        <fePointLight x="-5000" y="-10000" z="-20000"/>
      </feSpecularLighting>
      <feComposite result="specOut" operator="in" in="specOut" in2="SourceAlpha"/>
      <feComposite result="litPaint" operator="arithmetic" k2="1" k3="1" in="SourceGraphic" in2="specOut"/>
      <feMerge>
        <feMergeNode in="offsetBlur"/>
        <feMergeNode in="litPaint"/>
      </feMerge>
    </filter>
    <radialGradient id="radial-gradient" cx="438.52" cy="430.86" r="402.93" gradientUnits="userSpaceOnUse">
      <stop offset="0" stop-color="#ef4136"/>
      <stop offset="1"/>
    </radialGradient>
    <radialGradient id="radial-gradient-2" cx="449.05" cy="554.82" r="55.86" gradientUnits="userSpaceOnUse">
      <stop offset="0" stop-color="#414042"/>
      <stop offset="1" stop-color="#231f20"/>
    </radialGradient>
  </defs>
  <g id="Layer_4" data-name="Layer 4">
    <g>
      <g class="cls-1">
        <path class="cls-2" d="M803.8,466.16c-8.56-8.46-23.53-11.71-37.38-9.32C763,417.62,754.35,388,747.31,373.42s-19.4-28-20.28-28.94a48,48,0,0,0-8.11-7.24c-10.76-7.49-28.4-10.34-28.4-10.34a333,333,0,0,0-44.46-3.67c-17.71-52.37-45.66-96.72-80.28-128.12,27.85-5.46,65.48-45.69,65.87-80.43C632.58,50.12,524.19-2.15,521.93.6c-1.1,1.35,20.31,19.56,49.19,57.67,18,22.75,21,34.33,17.81,59.92-1.76,17.6-2.65,26.4-9,34.48-3.73,5.37-21.42,18.74-26.24,32.22-32.46-25.52-70-40.11-110-40.11-42.25,0-81.75,16.27-115.44,44.54-6.58-13.09-28.89-23-34-27.67-8-6.47-10.83-14.86-16.45-31.64-8.75-24.27-8.41-36.22,4.18-62.37,19.87-43.54,36.82-66,35.45-67.09C314.63-1.65,220,73.22,235.18,136c8,33.39,52.74,64,81.3,64C270.2,244.53,236.63,312.74,224.88,392c-8.72.37-24.85,0-40.6-7-12-5.37-18.38-12.17-24.76-19-14-15-17.74-29.22-18.67-33.17a60.7,60.7,0,0,1,.86-31c4.26-14.65,7-23.11,16.63-27.72,15.6-7.46,37.29-.77,54.65-5.75a19.63,19.63,0,0,0,7.34-3.55,10.29,10.29,0,0,0,3.52-8.24c-.36-13.27-22.16-22.07-39.75-18.83s-30.16,14.82-37.3,27c-4.17,7.11-1.55-35.77-19.42-41.89-7.28-2.49-16.61.47-24.14,3.91,0,0-3.39,3.41-3.73,6.49-.26,2.27,1.2,3.68,2.66,5.86,2.88,4.28.93,7.39,4,11.7A70.63,70.63,0,0,1,116.8,273.5c-7.8-12.81-20.17-27.78-39.3-26.9a14.36,14.36,0,0,0-6.44,1.54,9.49,9.49,0,0,0-3.67,4.48,24.61,24.61,0,0,0,5.73,28.75c8.44,8,23.21,11.05,36.87,8.79,3.39,37,11.91,65,18.86,78.73s19.13,26.42,20,27.31a46.23,46.23,0,0,0,8,6.83c9.28,6.19,19.31,8.14,28,9.76a149.11,149.11,0,0,0,37.28,2q-1.81,19.62-1.84,39.94c0,158.64,85.9,289.43,196.68,307.76a15.72,15.72,0,0,0-3.17,9.46V845.4a15.83,15.83,0,0,0,15.83,15.82h8.23a15.83,15.83,0,0,0,15.82-15.82V772a15.75,15.75,0,0,0-1.87-7.46c3.68-.18,7.35-.49,11-.92a15.67,15.67,0,0,0-.65,4.46v73.37A15.82,15.82,0,0,0,478,857.26h8.23A15.82,15.82,0,0,0,502,841.44V768.07a15.77,15.77,0,0,0-5.56-12c85.62-28.76,152-125.93,167.3-247.48a45.11,45.11,0,0,0,27.52,3.83c17.83-3.44,30.57-15.71,37.82-28.63,4.22-7.53,1.57,37.91,19.68,44.39,7.39,2.64,16.84-.5,24.48-4.15,0,0,3.43-3.61,3.78-6.87.26-2.41-1.22-3.9-2.7-6.21-2.92-4.53-1-7.83-4.06-12.4a76.62,76.62,0,0,1-10.78-24c7.91,13.57,20.46,29.44,39.85,28.5a14,14,0,0,0,6.53-1.63,10,10,0,0,0,3.72-4.74A26.92,26.92,0,0,0,803.8,466.16Zm-69.54-21.69C730,460,727.16,469,717.4,473.84c-14.5,7.25-34.19,1.9-50.93,5q.66-11.94.67-24.1a416.84,416.84,0,0,0-15.4-113.31l4,7.36c8.35.1,22.17,1.26,35.38,7.55a73.59,73.59,0,0,1,9.6,5.5c6.47,4.53,11,9.58,15.5,14.66,14.2,15.92,18,31,18.93,35.15A67.18,67.18,0,0,1,734.26,444.47Z"/>
        <path class="cls-3" d="M803.8,466.16c-8.56-8.46-23.53-11.71-37.38-9.32C763,417.62,754.35,388,747.31,373.42s-19.4-28-20.28-28.94a48,48,0,0,0-8.11-7.24c-10.76-7.49-28.4-10.34-28.4-10.34a333,333,0,0,0-44.46-3.67c-17.71-52.37-45.66-96.72-80.28-128.12,27.85-5.46,65.48-45.69,65.87-80.43C632.58,50.12,524.19-2.15,521.93.6c-1.1,1.35,20.31,19.56,49.19,57.67,18,22.75,21,34.33,17.81,59.92-1.76,17.6-2.65,26.4-9,34.48-3.73,5.37-21.42,18.74-26.24,32.22-32.46-25.52-70-40.11-110-40.11-42.25,0-81.75,16.27-115.44,44.54-6.58-13.09-28.89-23-34-27.67-8-6.47-10.83-14.86-16.45-31.64-8.75-24.27-8.41-36.22,4.18-62.37,19.87-43.54,36.82-66,35.45-67.09C314.63-1.65,220,73.22,235.18,136c8,33.39,52.74,64,81.3,64C270.2,244.53,236.63,312.74,224.88,392c-8.72.37-24.85,0-40.6-7-12-5.37-18.38-12.17-24.76-19-14-15-17.74-29.22-18.67-33.17a60.7,60.7,0,0,1,.86-31c4.26-14.65,7-23.11,16.63-27.72,15.6-7.46,37.29-.77,54.65-5.75a19.63,19.63,0,0,0,7.34-3.55,10.29,10.29,0,0,0,3.52-8.24c-.36-13.27-22.16-22.07-39.75-18.83s-30.16,14.82-37.3,27c-4.17,7.11-1.55-35.77-19.42-41.89-7.28-2.49-16.61.47-24.14,3.91,0,0-3.39,3.41-3.73,6.49-.26,2.27,1.2,3.68,2.66,5.86,2.88,4.28.93,7.39,4,11.7A70.63,70.63,0,0,1,116.8,273.5c-7.8-12.81-20.17-27.78-39.3-26.9a14.36,14.36,0,0,0-6.44,1.54,9.49,9.49,0,0,0-3.67,4.48,24.61,24.61,0,0,0,5.73,28.75c8.44,8,23.21,11.05,36.87,8.79,3.39,37,11.91,65,18.86,78.73s19.13,26.42,20,27.31a46.23,46.23,0,0,0,8,6.83c9.28,6.19,19.31,8.14,28,9.76a149.11,149.11,0,0,0,37.28,2q-1.81,19.62-1.84,39.94c0,158.64,85.9,289.43,196.68,307.76a15.72,15.72,0,0,0-3.17,9.46V845.4a15.83,15.83,0,0,0,15.83,15.82h8.23a15.83,15.83,0,0,0,15.82-15.82V772a15.75,15.75,0,0,0-1.87-7.46c3.68-.18,7.35-.49,11-.92a15.67,15.67,0,0,0-.65,4.46v73.37A15.82,15.82,0,0,0,478,857.26h8.23A15.82,15.82,0,0,0,502,841.44V768.07a15.77,15.77,0,0,0-5.56-12c85.62-28.76,152-125.93,167.3-247.48a45.11,45.11,0,0,0,27.52,3.83c17.83-3.44,30.57-15.71,37.82-28.63,4.22-7.53,1.57,37.91,19.68,44.39,7.39,2.64,16.84-.5,24.48-4.15,0,0,3.43-3.61,3.78-6.87.26-2.41-1.22-3.9-2.7-6.21-2.92-4.53-1-7.83-4.06-12.4a76.62,76.62,0,0,1-10.78-24c7.91,13.57,20.46,29.44,39.85,28.5a14,14,0,0,0,6.53-1.63,10,10,0,0,0,3.72-4.74A26.92,26.92,0,0,0,803.8,466.16Zm-69.54-21.69C730,460,727.16,469,717.4,473.84c-14.5,7.25-34.19,1.9-50.93,5q.66-11.94.67-24.1a416.84,416.84,0,0,0-15.4-113.31l4,7.36c8.35.1,22.17,1.26,35.38,7.55a73.59,73.59,0,0,1,9.6,5.5c6.47,4.53,11,9.58,15.5,14.66,14.2,15.92,18,31,18.93,35.15A67.18,67.18,0,0,1,734.26,444.47Z"/>
      </g>
      <circle class="cls-4" cx="438.52" cy="314.5" r="59.46"/>
      <ellipse class="cls-5" cx="438.52" cy="332.12" rx="29.87" ry="34.19"/>
      <path class="cls-6" d="M486.17,501.43c3.74.61,7.94,1.46,11.36,4.65a17.23,17.23,0,0,1,4.86,9.32c11.69,54.09-13,77.62-13,77.62a59.17,59.17,0,0,1-33.11,16.17c-4.14.55-20,3.36-33.67-5.6-24.5-16.1-27.68-49.33-29.24-69-.68-8.47-1.89-13.59,1-18.66,8.07-14.27,39-15.81,39-15.82s13.73-.43,27.65-.49A147.64,147.64,0,0,1,486.17,501.43Z"/>
      <path class="cls-4" d="M413.14,503.56c19,36.31,27.31,51.37,31.24,58l7.81,13.18,4.38,11.57c7.41-19.45,14.54-40.05,21.16-61.79q3.84-12.63,7.22-24.93"/>
      <path class="cls-3" d="M358.09,277.25a74.7,74.7,0,0,1,16-22.77c20-19.43,45.12-21.37,53-21.66"/>
      <path class="cls-7" d="M386.88,637.8c-.2,0-.85-.14-.9,0s2.46,1.15,3.42,1.48c11.66,4.06,26.45,8.57,41.51,12.68.25,0,.38,0,.4-.08.11-.39-5.13-2.3-8.21-3.16-9.56-2.65-13.09.74-20.14-1.37C395.39,645,390.2,638.37,386.88,637.8Z"/>
    </g>
  </g>
</svg>
