<svg xmlns="http://www.w3.org/2000/svg" xmlns:xlink="http://www.w3.org/1999/xlink" width="196" height="193" viewBox="0 0 196 193">
  <defs>
    <style>
      .cls-1 {
        isolation: isolate;
      }

      .cls-2 {
        opacity: 0.75;
        mix-blend-mode: screen;
      }

      .cls-3 {
        fill: url(#radial-gradient);
      }

      .cls-4 {
        mask: url(#mask);
      }

      .cls-5 {
        fill: #fff;
      }

      .cls-6 {
        filter: url(#luminosity-invert);
      }
    </style>
    <radialGradient id="radial-gradient" cx="157.89" cy="-36.62" r="81.23" gradientTransform="translate(-50.87 152.15) rotate(-6.83)" gradientUnits="userSpaceOnUse">
      <stop offset="0" stop-color="#f15a24"/>
      <stop offset="0" stop-color="gray"/>
      <stop offset="1" stop-color="#666"/>
    </radialGradient>
    <filter id="luminosity-invert" filterUnits="userSpaceOnUse" color-interpolation-filters="sRGB">
      <feColorMatrix values="-1 0 0 0 1 0 -1 0 0 1 0 0 -1 0 1 0 0 0 1 0"/>
    </filter>
    <mask id="mask" x="-1" y="0" width="197" height="193" maskUnits="userSpaceOnUse">
      <g class="cls-6">
        <image width="197" height="193" transform="translate(-1)" xlink:href="life2.png"/>
      </g>
    </mask>
  </defs>
  <g class="cls-1">
    <g id="Layer_1" data-name="Layer 1">
      <g>
        <g>
          <image class="cls-2" width="196" height="193" xlink:href="life1.png"/>
          <g>
            <path class="cls-3" d="M110.27,176.84c-5.33,0-11.38-1.52-18.5-4.65-28-12.32-63-47.11-73-84C13.57,68.82,16.06,51.92,26.2,38c7.43-10.23,20.94-16.84,34.41-16.84a39,39,0,0,1,10.2,1.33C84.16,26.09,95,37.72,97,50.74l.62,3.87.37-3.9c1.72-18.13,21.61-34.64,41.72-34.64a33.79,33.79,0,0,1,12,2.15c19.67,7.46,28.14,28.18,27.8,45.41-.37,18.67-9,36.68-18.35,53.36-8.31,14.89-17.45,29.61-27.18,43.75-4.17,6.06-8.45,11.72-15,14.44A23,23,0,0,1,110.27,176.84Z"/>
            <path d="M139.75,16.57a33.33,33.33,0,0,1,11.86,2.12,40.48,40.48,0,0,1,20.67,18.1,52.38,52.38,0,0,1,6.8,26.83c-.36,18.56-9,36.5-18.28,53.13-8.31,14.87-17.44,29.58-27.16,43.71-4.13,6-8.36,11.6-14.74,14.25a22.37,22.37,0,0,1-8.63,1.63c-5.26,0-11.24-1.51-18.3-4.61-14.34-6.3-30.2-18.41-43.5-33.22-14.33-15.95-24.69-33.87-29.18-50.44-5.19-19.23-2.73-36,7.31-49.8,7.34-10.11,20.69-16.64,34-16.64A38.46,38.46,0,0,1,70.68,23c13.13,3.56,23.73,15,25.84,27.74a28.91,28.91,0,0,0,.3,7.44l1.3,7.59.68-7.67a30.81,30.81,0,0,0-.26-7.42c1.77-17.85,21.38-34.06,41.21-34.06m0-1c-20.12,0-40.44,16.33-42.22,35.09A29.21,29.21,0,0,1,97.8,58a27.58,27.58,0,0,1-.27-7.3C95.42,37.52,84.76,25.74,71,22a39.66,39.66,0,0,0-10.34-1.35c-13.48,0-27.15,6.5-34.82,17.05-33.25,45.75,22.51,115.94,65.78,135,5.82,2.56,12.35,4.69,18.7,4.69a23.3,23.3,0,0,0,9-1.7c6.74-2.81,11.2-8.83,15.18-14.61q14.67-21.33,27.21-43.8c9.4-16.83,18-34.75,18.41-53.59S170.6,24.82,152,17.75a34.24,34.24,0,0,0-12.21-2.18Z"/>
          </g>
        </g>
        <g class="cls-4">
          <g class="cls-2">
            <path class="cls-5" d="M193,54c-.95-6-1.86-11.52-4-17a63.52,63.52,0,0,0-4.5-9c-1.62-2.71-3.87-5.07-5.5-8h-1c-4.29-9.39-17.22-12.61-26-17h-5V2H132V3h-5c-5,1.86-10.4,3.34-15,6-5.42,3.13-9.78,7.54-15,11H95c-1.9-3.84-8.82-6.6-12.5-8.33-4.33-2.05-9-3-13.5-4.67H52c-4.62,1.73-9.42,2.78-14,4.5-5.51,2.06-9.18,5.31-14,8.5H23c-.86,1.95-3.58,2.86-5,4.5-.94,1.08-2.07,3.88-3,5C12.17,32.91,9.61,36.12,8,40A44.55,44.55,0,0,0,5,50.5c-.21,1.35-1.78,3.66-2,5-.26,1.62.26,3.37,0,5-.12.76-.84,1.89-1,3A19,19,0,0,0,2,66v9a17.38,17.38,0,0,0,0,2.5c.12.83.91,1.44,1,2,.58,3.58.44,6.5,1,10,0,.22.9,1.7,1,2,.19.58-.1,1.39,0,2,.21,1.35,1.55,3.64,2,5a113.87,113.87,0,0,0,20,37c2.36,2.85,4.67,7,7,10,2.55,3.25,6.07,6.07,9,9A160.64,160.64,0,0,0,61.5,171c11.65,8.53,23.94,13.91,37.5,19h4v1h13v-1h5c7.63-3.81,13.83-7.2,19-13.5a233.83,233.83,0,0,0,14-19c7.43-11.15,13.67-23.11,20.5-34.5A172.69,172.69,0,0,0,190,88.5,75.79,75.79,0,0,0,193,54Z"/>
            <g>
              <path class="cls-5" d="M110.27,176.84c-5.33,0-11.38-1.52-18.5-4.65-28-12.32-63-47.11-73-84C13.57,68.82,16.06,51.92,26.2,38c7.43-10.23,20.94-16.84,34.41-16.84a39,39,0,0,1,10.2,1.33C84.16,26.09,95,37.72,97,50.74l.62,3.87.37-3.9c1.72-18.13,21.61-34.64,41.72-34.64a33.79,33.79,0,0,1,12,2.15c19.67,7.46,28.14,28.18,27.8,45.41-.37,18.67-9,36.68-18.35,53.36-8.31,14.89-17.45,29.61-27.18,43.75-4.17,6.06-8.45,11.72-15,14.44A23,23,0,0,1,110.27,176.84Z"/>
              <path class="cls-5" d="M139.75,16.57a33.33,33.33,0,0,1,11.86,2.12,40.48,40.48,0,0,1,20.67,18.1,52.38,52.38,0,0,1,6.8,26.83c-.36,18.56-9,36.5-18.28,53.13-8.31,14.87-17.44,29.58-27.16,43.71-4.13,6-8.36,11.6-14.74,14.25a22.37,22.37,0,0,1-8.63,1.63c-5.26,0-11.24-1.51-18.3-4.61-14.34-6.3-30.2-18.41-43.5-33.22-14.33-15.95-24.69-33.87-29.18-50.44-5.19-19.23-2.73-36,7.31-49.8,7.34-10.11,20.69-16.64,34-16.64A38.46,38.46,0,0,1,70.68,23c13.13,3.56,23.73,15,25.84,27.74a28.91,28.91,0,0,0,.3,7.44l1.3,7.59.68-7.67a30.81,30.81,0,0,0-.26-7.42c1.77-17.85,21.38-34.06,41.21-34.06m0-1c-20.12,0-40.44,16.33-42.22,35.09A29.21,29.21,0,0,1,97.8,58a27.58,27.58,0,0,1-.27-7.3C95.42,37.52,84.76,25.74,71,22a39.66,39.66,0,0,0-10.34-1.35c-13.48,0-27.15,6.5-34.82,17.05-33.25,45.75,22.51,115.94,65.78,135,5.82,2.56,12.35,4.69,18.7,4.69a23.3,23.3,0,0,0,9-1.7c6.74-2.81,11.2-8.83,15.18-14.61q14.67-21.33,27.21-43.8c9.4-16.83,18-34.75,18.41-53.59S170.6,24.82,152,17.75a34.24,34.24,0,0,0-12.21-2.18Z"/>
            </g>
          </g>
        </g>
      </g>
    </g>
  </g>
</svg>
