<svg xmlns="http://www.w3.org/2000/svg" xmlns:xlink="http://www.w3.org/1999/xlink" width="196" height="193" viewBox="0 0 196 193">
  <defs>
    <style>
      .cls-1 {
        isolation: isolate;
      }

      .cls-2 {
        opacity: 0.75;
        mix-blend-mode: screen;
      }

      .cls-3 {
        fill: url(#radial-gradient);
      }
    </style>
    <radialGradient id="radial-gradient" cx="156.73" cy="-79.2" r="81.23" gradientTransform="translate(-44.65 194.29) rotate(-6.83)" gradientUnits="userSpaceOnUse">
      <stop offset="0" stop-color="#f15a24"/>
      <stop offset="1" stop-color="#ed1c24"/>
    </radialGradient>
  </defs>
  <g class="cls-1">
    <g id="Layer_1" data-name="Layer 1">
      <g>
        <image class="cls-2" width="196" height="193" xlink:href="life1.png"/>
        <g>
          <path class="cls-3" d="M110.27,176.84c-5.33,0-11.38-1.52-18.5-4.65-28-12.32-63-47.11-73-84C13.57,68.82,16.06,51.92,26.2,38c7.43-10.23,20.94-16.84,34.41-16.84a39.16,39.16,0,0,1,10.21,1.33C84.16,26.09,95,37.72,97,50.74l.62,3.87.37-3.9c1.72-18.13,21.61-34.64,41.72-34.64a33.79,33.79,0,0,1,12,2.15c19.67,7.46,28.14,28.18,27.8,45.41-.36,18.67-9,36.68-18.34,53.36-8.32,14.89-17.46,29.61-27.19,43.75-4.17,6.06-8.45,11.73-15,14.44A23,23,0,0,1,110.27,176.84Z"/>
          <path d="M139.75,16.57a33.33,33.33,0,0,1,11.86,2.12,40.48,40.48,0,0,1,20.67,18.1,52.38,52.38,0,0,1,6.8,26.83c-.36,18.56-9,36.5-18.28,53.13-8.31,14.87-17.44,29.58-27.16,43.71-4.13,6-8.36,11.6-14.74,14.25a22.37,22.37,0,0,1-8.63,1.63c-5.26,0-11.24-1.51-18.3-4.61-14.34-6.3-30.2-18.41-43.5-33.22C34.14,122.56,23.78,104.64,19.3,88.07c-5.2-19.23-2.74-36,7.3-49.8,7.34-10.11,20.69-16.64,34-16.64A38.46,38.46,0,0,1,70.68,23c13.13,3.56,23.73,15,25.84,27.74a28.91,28.91,0,0,0,.3,7.44l1.3,7.59.68-7.67a30.81,30.81,0,0,0-.26-7.42c1.77-17.85,21.38-34.06,41.21-34.06m0-1c-20.12,0-40.44,16.33-42.22,35.09A29.21,29.21,0,0,1,97.8,58a27.58,27.58,0,0,1-.27-7.3C95.42,37.52,84.76,25.74,71,22a39.66,39.66,0,0,0-10.34-1.35c-13.48,0-27.15,6.5-34.82,17.05-33.25,45.75,22.51,115.94,65.78,135,5.82,2.56,12.35,4.69,18.7,4.69a23.3,23.3,0,0,0,9-1.7c6.74-2.81,11.2-8.83,15.18-14.61q14.67-21.33,27.21-43.8c9.4-16.83,18-34.75,18.41-53.59S170.6,24.82,152,17.75a34.24,34.24,0,0,0-12.21-2.18Z"/>
        </g>
      </g>
    </g>
  </g>
</svg>
