<svg xmlns="http://www.w3.org/2000/svg" width="126" height="120" viewBox="0 0 126 120">
  <defs>
    <style>
      .cls-1 {
        fill: #8a8a8a;
      }

      .cls-2 {
        fill: #008fe9;
        stroke: #000;
        stroke-miterlimit: 10;
      }
    </style>
  </defs>
  <g id="Layer_3" data-name="Layer 3">
    <g>
      <g>
        <ellipse cx="63" cy="60" rx="62.5" ry="59.5"/>
        <path d="M63,1c34.19,0,62,26.47,62,59s-27.81,59-62,59S1,92.53,1,60,28.81,1,63,1m0-1C28.21,0,0,26.86,0,60s28.21,60,63,60,63-26.86,63-60S97.79,0,63,0Z"/>
      </g>
      <g>
        <ellipse class="cls-1" cx="63" cy="59.5" rx="54.5" ry="51"/>
        <path d="M63,9c29.78,0,54,22.65,54,50.5S92.78,110,63,110,9,87.35,9,59.5,33.22,9,63,9m0-1C32.62,8,8,31.06,8,59.5S32.62,111,63,111s55-23.06,55-51.5S93.38,8,63,8Z"/>
      </g>
      <polygon class="cls-2" points="83 26 83 94 58.83 72.12 32 72.12 32 48.03 58.66 48.03 83 26"/>
    </g>
  </g>
</svg>
