<svg xmlns="http://www.w3.org/2000/svg" xmlns:xlink="http://www.w3.org/1999/xlink" width="1920" height="1080" viewBox="0 0 1920 1080">
  <defs>
    <style>
      .cls-1, .cls-10, .cls-11, .cls-12, .cls-13, .cls-14, .cls-5 {
        stroke-miterlimit: 10;
      }

      .cls-1 {
        fill: url(#radial-gradient);
        stroke: url(#radial-gradient-2);
      }

      .cls-2 {
        fill: url(#radial-gradient-3);
      }

      .cls-3 {
        mix-blend-mode: color-dodge;
        fill: url(#radial-gradient-4);
      }

      .cls-4 {
        isolation: isolate;
      }

      .cls-11, .cls-5 {
        fill: #fff;
      }

      .cls-5 {
        stroke: #000;
      }

      .cls-6 {
        fill: url(#radial-gradient-5);
      }

      .cls-7 {
        mix-blend-mode: overlay;
      }

      .cls-8 {
        filter: url(#AI_BevelShadow_1);
      }

      .cls-9 {
        fill: #ec1c24;
      }

      .cls-10 {
        fill: none;
      }

      .cls-10, .cls-11, .cls-12, .cls-13, .cls-14 {
        stroke: #231f20;
      }

      .cls-12 {
        fill: #231f20;
      }

      .cls-13 {
        fill: url(#radial-gradient-6);
      }

      .cls-14 {
        fill: #404041;
      }

      .cls-15, .cls-16 {
        opacity: 0.75;
      }

      .cls-15 {
        mix-blend-mode: multiply;
      }

      .cls-16 {
        mix-blend-mode: screen;
      }

      .cls-17 {
        fill: url(#linear-gradient);
      }
    </style>
    <radialGradient id="radial-gradient" cx="43.5" cy="43.5" r="43" gradientUnits="userSpaceOnUse">
      <stop offset="0" stop-color="#fff"/>
      <stop offset="0.17" stop-opacity="0"/>
    </radialGradient>
    <radialGradient id="radial-gradient-2" cx="43.5" cy="43.5" r="43.5" gradientUnits="userSpaceOnUse">
      <stop offset="0" stop-color="#fff"/>
      <stop offset="0.13" stop-opacity="0"/>
    </radialGradient>
    <radialGradient id="radial-gradient-3" cx="107.5" cy="107.5" r="107.5" gradientUnits="userSpaceOnUse">
      <stop offset="0" stop-color="#fff"/>
      <stop offset="0.11" stop-color="#fff" stop-opacity="0.86"/>
      <stop offset="0.36" stop-color="#fff" stop-opacity="0.56"/>
      <stop offset="0.58" stop-color="#fff" stop-opacity="0.32"/>
      <stop offset="0.77" stop-color="#fff" stop-opacity="0.15"/>
      <stop offset="0.91" stop-color="#fff" stop-opacity="0.04"/>
      <stop offset="1" stop-color="#fff" stop-opacity="0"/>
    </radialGradient>
    <radialGradient id="radial-gradient-4" cx="76.5" cy="76.5" r="76.5" gradientUnits="userSpaceOnUse">
      <stop offset="0" stop-color="#fff"/>
      <stop offset="0.02" stop-color="#e8e8e8"/>
      <stop offset="0.07" stop-color="#b8b8b8"/>
      <stop offset="0.12" stop-color="#8c8c8c"/>
      <stop offset="0.17" stop-color="#666"/>
      <stop offset="0.22" stop-color="#464646"/>
      <stop offset="0.29" stop-color="#2d2d2d"/>
      <stop offset="0.35" stop-color="#191919"/>
      <stop offset="0.43" stop-color="#0b0b0b"/>
      <stop offset="0.52" stop-color="#020202"/>
      <stop offset="0.68"/>
    </radialGradient>
    <radialGradient id="radial-gradient-5" cx="970.14" cy="1047.22" r="752.87" gradientTransform="translate(-41.84 -76.22) scale(1.02 1.07)" gradientUnits="userSpaceOnUse">
      <stop offset="0" stop-color="#c80d5c"/>
      <stop offset="0" stop-color="#d4145a"/>
      <stop offset="0.11" stop-color="#cb145b"/>
      <stop offset="0.29" stop-color="#b1145c"/>
      <stop offset="0.52" stop-color="#87145e"/>
      <stop offset="0.78" stop-color="#4e1461"/>
      <stop offset="1" stop-color="#1b1464"/>
    </radialGradient>
    <filter id="AI_BevelShadow_1" x="-20%" y="-20%" width="140%" height="140%" name="AI_BevelShadow_1">
      <feGaussianBlur result="blur" stdDeviation="4" in="SourceAlpha"/>
      <feOffset result="offsetBlur" dx="4" dy="4" in="blur"/>
      <feSpecularLighting result="specOut" surfaceScale="5" specularExponent="10" in="blur">
        <fePointLight x="-5000" y="-10000" z="-20000"/>
      </feSpecularLighting>
      <feComposite result="specOut" operator="in" in="specOut" in2="SourceAlpha"/>
      <feComposite result="litPaint" operator="arithmetic" k2="1" k3="1" in="SourceGraphic" in2="specOut"/>
      <feMerge>
        <feMergeNode in="offsetBlur"/>
        <feMergeNode in="litPaint"/>
      </feMerge>
    </filter>
    <radialGradient id="radial-gradient-6" cx="-4377.56" cy="127.82" r="55.86" gradientTransform="translate(2194.79 193.16) scale(0.27 0.22)" gradientUnits="userSpaceOnUse">
      <stop offset="0" stop-color="#404041"/>
      <stop offset="1" stop-color="#231f20"/>
    </radialGradient>
    <linearGradient id="linear-gradient" x1="-273.22" y1="583.44" x2="674.02" y2="583.44" gradientTransform="matrix(1.24, -0.02, 0.01, 0.97, 679.27, -87.13)" gradientUnits="userSpaceOnUse">
      <stop offset="0" stop-color="#f7931e"/>
      <stop offset="0.27" stop-color="#f46b20"/>
      <stop offset="0.59" stop-color="#f04022"/>
      <stop offset="0.85" stop-color="#ee2624"/>
      <stop offset="1" stop-color="#ed1c24"/>
    </linearGradient>
    <symbol id="New_Symbol" data-name="New Symbol" viewBox="0 0 87 87">
      <circle class="cls-1" cx="43.5" cy="43.5" r="43"/>
    </symbol>
    <symbol id="New_Symbol_1" data-name="New Symbol 1" viewBox="0 0 215 215">
      <circle class="cls-2" cx="107.5" cy="107.5" r="107.5"/>
    </symbol>
    <symbol id="New_Symbol_2" data-name="New Symbol 2" viewBox="0 0 153 153">
      <circle class="cls-3" cx="76.5" cy="76.5" r="76.5"/>
    </symbol>
  </defs>
  <g class="cls-4">
    <g id="Layer_6" data-name="Layer 6">
      <g>
        <rect class="cls-5" x="-26.06" y="1.3" width="1949.8" height="1082.07"/>
        <rect class="cls-6" x="-24.54" y="0.8" width="1949.8" height="1082.07"/>
      </g>
      <g>
        <use width="87" height="87" transform="translate(739.97 455.16) scale(1.02 1)" xlink:href="#New_Symbol"/>
        <use width="87" height="87" transform="translate(739.42 418.33) scale(1.02 1)" xlink:href="#New_Symbol"/>
        <use width="87" height="87" transform="translate(897.36 504.29) scale(1.02 1)" xlink:href="#New_Symbol"/>
        <use width="87" height="87" transform="translate(912.5 541.5) scale(1.02 1)" xlink:href="#New_Symbol"/>
        <use width="87" height="87" transform="translate(1009.68 538.65) scale(1.02 1)" xlink:href="#New_Symbol"/>
        <use width="87" height="87" transform="translate(993.69 506.18) scale(1.02 1)" xlink:href="#New_Symbol"/>
        <use width="87" height="87" transform="translate(1098.89 505.45) scale(1.02 1)" xlink:href="#New_Symbol"/>
        <use width="87" height="87" transform="translate(1085.11 468.03) scale(1.02 1)" xlink:href="#New_Symbol"/>
        <use width="87" height="87" transform="translate(1064.63 510.43) scale(1.02 1)" xlink:href="#New_Symbol"/>
        <use width="87" height="87" transform="translate(838.12 543.72) scale(1.02 1)" xlink:href="#New_Symbol"/>
        <use width="87" height="87" transform="translate(639.39 582.69) scale(1.02 1)" xlink:href="#New_Symbol"/>
        <use width="87" height="87" transform="translate(479.08 563.68) scale(1.02 1)" xlink:href="#New_Symbol"/>
        <use width="87" height="87" transform="translate(434.32 547.94) scale(1.02 1)" xlink:href="#New_Symbol"/>
        <use width="87" height="87" transform="translate(523.45 455.61) scale(1.02 1)" xlink:href="#New_Symbol"/>
        <use width="87" height="87" transform="translate(620.07 380.31) scale(1.02 1)" xlink:href="#New_Symbol"/>
        <use width="87" height="87" transform="translate(859.15 415.62) scale(1.02 1)" xlink:href="#New_Symbol"/>
        <use width="87" height="87" transform="translate(966.31 451.17) scale(1.02 1)" xlink:href="#New_Symbol"/>
        <use width="87" height="87" transform="translate(1025.4 336.02) scale(1.02 1)" xlink:href="#New_Symbol"/>
        <use width="87" height="87" transform="translate(705.7 203.84) scale(1.02 1)" xlink:href="#New_Symbol"/>
        <use width="87" height="87" transform="translate(528.55 156.67) scale(1.02 1)" xlink:href="#New_Symbol"/>
        <use width="87" height="87" transform="translate(356.82 165.52) scale(1.02 1)" xlink:href="#New_Symbol"/>
        <use width="87" height="87" transform="translate(190.58 179.85) scale(1.02 1)" xlink:href="#New_Symbol"/>
        <use width="87" height="87" transform="translate(126.88 188.81) scale(1.02 1)" xlink:href="#New_Symbol"/>
        <use width="87" height="87" transform="translate(109.5 229.29) scale(1.02 1)" xlink:href="#New_Symbol"/>
        <use width="87" height="87" transform="translate(257.07 382.35) scale(1.02 1)" xlink:href="#New_Symbol"/>
        <use width="87" height="87" transform="translate(546.66 485.85) scale(1.02 1)" xlink:href="#New_Symbol"/>
        <use width="87" height="87" transform="translate(508.53 628.71) scale(1.02 1)" xlink:href="#New_Symbol"/>
        <use width="87" height="87" transform="translate(308.16 641.73) scale(1.02 1)" xlink:href="#New_Symbol"/>
        <use width="87" height="87" transform="translate(84.23 562.84) scale(1.02 1)" xlink:href="#New_Symbol"/>
        <use width="87" height="87" transform="translate(80.18 422.49) scale(1.02 1)" xlink:href="#New_Symbol"/>
        <use width="87" height="87" transform="translate(282.86 342.6) scale(1.02 1)" xlink:href="#New_Symbol"/>
        <use width="87" height="87" transform="translate(476.18 363.63) scale(1.02 1)" xlink:href="#New_Symbol"/>
        <use width="87" height="87" transform="translate(416.89 453.56) scale(1.02 1)" xlink:href="#New_Symbol"/>
        <use width="87" height="87" transform="translate(124.32 518.31) scale(1.02 1)" xlink:href="#New_Symbol"/>
        <use width="87" height="87" transform="translate(32.17 527.34) scale(1.02 1)" xlink:href="#New_Symbol"/>
        <use width="87" height="87" transform="translate(206.16 337.37) scale(1.02 1)" xlink:href="#New_Symbol"/>
        <use width="87" height="87" transform="translate(655.45 275.34) scale(1.02 1)" xlink:href="#New_Symbol"/>
        <use width="87" height="87" transform="translate(913.13 271.36) scale(1.02 1)" xlink:href="#New_Symbol"/>
        <use width="87" height="87" transform="translate(1126.08 292.03) scale(1.02 1)" xlink:href="#New_Symbol"/>
        <use width="87" height="87" transform="translate(1297.71 308.99) scale(1.02 1)" xlink:href="#New_Symbol"/>
        <use width="87" height="87" transform="translate(1443.35 323.34) scale(1.02 1)" xlink:href="#New_Symbol"/>
        <use width="87" height="87" transform="translate(1555.66 341.48) scale(1.02 1)" xlink:href="#New_Symbol"/>
        <use width="87" height="87" transform="translate(1718.67 352.09) scale(1.02 1)" xlink:href="#New_Symbol"/>
        <use width="87" height="87" transform="translate(1618.3 255.97) scale(1.02 1)" xlink:href="#New_Symbol"/>
        <use width="87" height="87" transform="translate(1407.19 149.68) scale(1.02 1)" xlink:href="#New_Symbol"/>
        <use width="87" height="87" transform="translate(1208.91 92.75) scale(1.02 1)" xlink:href="#New_Symbol"/>
        <use width="87" height="87" transform="translate(990.69 6.37) scale(1.02 1)" xlink:href="#New_Symbol"/>
        <use width="87" height="87" transform="translate(781.97 -5.93) scale(1.02 1)" xlink:href="#New_Symbol"/>
        <use width="87" height="87" transform="translate(601.68 14.61) scale(1.02 1)" xlink:href="#New_Symbol"/>
        <use width="87" height="87" transform="translate(505.11 17.13) scale(1.02 1)" xlink:href="#New_Symbol"/>
        <use width="87" height="87" transform="translate(326.71 3.46) scale(1.02 1)" xlink:href="#New_Symbol"/>
        <use width="87" height="87" transform="translate(260.72 9.34) scale(1.02 1)" xlink:href="#New_Symbol"/>
        <use width="87" height="87" transform="translate(207.9 1.82) scale(1.02 1)" xlink:href="#New_Symbol"/>
        <use width="87" height="87" transform="translate(154.61 9.69) scale(1.02 1)" xlink:href="#New_Symbol"/>
        <use width="87" height="87" transform="translate(110.09 24.53) scale(1.02 1)" xlink:href="#New_Symbol"/>
        <use width="87" height="87" transform="translate(67.64 2.31) scale(1.02 1)" xlink:href="#New_Symbol"/>
        <use width="87" height="87" transform="translate(59.59 50.05) scale(1.02 1)" xlink:href="#New_Symbol"/>
        <use width="87" height="87" transform="translate(162.97 61.89) scale(1.02 1)" xlink:href="#New_Symbol"/>
        <use width="87" height="87" transform="translate(380.72 -11.85) scale(1.02 1)" xlink:href="#New_Symbol"/>
        <use width="87" height="87" transform="translate(510.33 -36.84) scale(1.02 1)" xlink:href="#New_Symbol"/>
        <use width="87" height="87" transform="translate(649.29 -48.59) scale(1.02 1)" xlink:href="#New_Symbol"/>
        <use width="87" height="87" transform="translate(765.28 -60) scale(1.02 1)" xlink:href="#New_Symbol"/>
        <use width="87" height="87" transform="translate(908.99 -44.41) scale(1.02 1)" xlink:href="#New_Symbol"/>
        <use width="87" height="87" transform="translate(1044.2 -32.19) scale(1.02 1)" xlink:href="#New_Symbol"/>
        <use width="87" height="87" transform="translate(1193.09 -25.64) scale(1.02 1)" xlink:href="#New_Symbol"/>
        <use width="87" height="87" transform="translate(1360.03 -23.05) scale(1.02 1)" xlink:href="#New_Symbol"/>
        <use width="87" height="87" transform="translate(1524.93 4.88) scale(1.02 1)" xlink:href="#New_Symbol"/>
        <use width="87" height="87" transform="translate(1655.6 34.55) scale(1.02 1)" xlink:href="#New_Symbol"/>
        <use width="87" height="87" transform="translate(1715.43 46.88) scale(1.02 1)" xlink:href="#New_Symbol"/>
        <use width="87" height="87" transform="translate(1752.47 42.6) scale(1.02 1)" xlink:href="#New_Symbol"/>
        <use width="87" height="87" transform="translate(1802.29 154.6) scale(1.02 1)" xlink:href="#New_Symbol"/>
        <use width="87" height="87" transform="translate(1799.51 302.81) scale(1.02 1)" xlink:href="#New_Symbol"/>
        <use width="87" height="87" transform="translate(1814.94 536.38) scale(1.02 1)" xlink:href="#New_Symbol"/>
        <use width="87" height="87" transform="translate(1830.37 594.87) scale(1.02 1)" xlink:href="#New_Symbol"/>
        <use width="87" height="87" transform="translate(1805.51 645.48) scale(1.02 1)" xlink:href="#New_Symbol"/>
        <use width="87" height="87" transform="translate(1764.43 700.11) scale(1.02 1)" xlink:href="#New_Symbol"/>
        <use width="87" height="87" transform="translate(1829.76 725.12) scale(1.02 1)" xlink:href="#New_Symbol"/>
        <use width="87" height="87" transform="translate(1814.05 778.86) scale(1.02 1)" xlink:href="#New_Symbol"/>
        <use width="87" height="87" transform="translate(1592.98 842.3) scale(1.02 1)" xlink:href="#New_Symbol"/>
        <use width="87" height="87" transform="translate(1244.58 819.01) scale(1.02 1)" xlink:href="#New_Symbol"/>
        <use width="87" height="87" transform="translate(1074.17 838.41) scale(1.02 1)" xlink:href="#New_Symbol"/>
        <use width="87" height="87" transform="translate(831.88 874.62) scale(1.02 1)" xlink:href="#New_Symbol"/>
        <use width="87" height="87" transform="translate(584.58 953.14) scale(1.02 1)" xlink:href="#New_Symbol"/>
        <use width="87" height="87" transform="translate(356.47 963.9) scale(1.02 1)" xlink:href="#New_Symbol"/>
        <use width="87" height="87" transform="translate(213.94 964.75) scale(1.02 1)" xlink:href="#New_Symbol"/>
        <use width="87" height="87" transform="translate(71.76 914.18) scale(1.02 1)" xlink:href="#New_Symbol"/>
        <use width="87" height="87" transform="translate(66.81 872.48) scale(1.02 1)" xlink:href="#New_Symbol"/>
        <use width="87" height="87" transform="translate(472.93 897.86) scale(1.02 1)" xlink:href="#New_Symbol"/>
        <use width="87" height="87" transform="translate(554.82 882.45) scale(1.02 1)" xlink:href="#New_Symbol"/>
        <use width="87" height="87" transform="translate(841.4 794.57) scale(1.02 1)" xlink:href="#New_Symbol"/>
        <use width="87" height="87" transform="translate(890.37 791.38) scale(1.02 1)" xlink:href="#New_Symbol"/>
        <use width="87" height="87" transform="translate(538.59 779.1) scale(1.02 1)" xlink:href="#New_Symbol"/>
        <use width="87" height="87" transform="translate(319.67 761.85) scale(1.02 1)" xlink:href="#New_Symbol"/>
        <use width="87" height="87" transform="translate(531.51 706.53) scale(1.02 1)" xlink:href="#New_Symbol"/>
        <use width="87" height="87" transform="translate(700.07 674.62) scale(1.02 1)" xlink:href="#New_Symbol"/>
        <use width="87" height="87" transform="translate(735.71 688.23) scale(1.02 1)" xlink:href="#New_Symbol"/>
        <use width="87" height="87" transform="translate(719.04 751.78) scale(1.02 1)" xlink:href="#New_Symbol"/>
        <use width="87" height="87" transform="translate(706.5 806.71) scale(1.02 1)" xlink:href="#New_Symbol"/>
        <use width="87" height="87" transform="translate(684.7 850.47) scale(1.02 1)" xlink:href="#New_Symbol"/>
        <use width="87" height="87" transform="translate(702.54 889.29) scale(1.02 1)" xlink:href="#New_Symbol"/>
        <use width="87" height="87" transform="translate(906.39 848.82) scale(1.02 1)" xlink:href="#New_Symbol"/>
        <use width="87" height="87" transform="translate(928.31 755.6) scale(1.02 1)" xlink:href="#New_Symbol"/>
        <use width="87" height="87" transform="translate(945.2 671.99) scale(1.02 1)" xlink:href="#New_Symbol"/>
        <use width="87" height="87" transform="translate(987.25 674.26) scale(1.02 1)" xlink:href="#New_Symbol"/>
        <use width="87" height="87" transform="translate(806.51 737.74) scale(1.02 1)" xlink:href="#New_Symbol"/>
        <use width="87" height="87" transform="translate(899.31 739.18) scale(1.02 1)" xlink:href="#New_Symbol"/>
        <use width="87" height="87" transform="translate(1169.95 756.53) scale(1.02 1)" xlink:href="#New_Symbol"/>
        <use width="87" height="87" transform="translate(1282.22 730.46) scale(1.02 1)" xlink:href="#New_Symbol"/>
        <use width="87" height="87" transform="translate(1366.27 763.03) scale(1.02 1)" xlink:href="#New_Symbol"/>
        <use width="87" height="87" transform="translate(1511.35 781.45) scale(1.02 1)" xlink:href="#New_Symbol"/>
        <use width="87" height="87" transform="translate(1625.73 709.37) scale(1.02 1)" xlink:href="#New_Symbol"/>
        <use width="87" height="87" transform="translate(1613.35 680.19) scale(1.02 1)" xlink:href="#New_Symbol"/>
        <use width="87" height="87" transform="translate(1586.96 797.43) scale(1.02 1)" xlink:href="#New_Symbol"/>
        <use width="87" height="87" transform="translate(1657.91 777.17) scale(1.02 1)" xlink:href="#New_Symbol"/>
        <use width="87" height="87" transform="translate(1639.82 633.22) scale(1.02 1)" xlink:href="#New_Symbol"/>
        <use width="87" height="87" transform="translate(1502.2 624.3) scale(1.02 1)" xlink:href="#New_Symbol"/>
        <use width="87" height="87" transform="translate(1378.93 632.82) scale(1.02 1)" xlink:href="#New_Symbol"/>
        <use width="87" height="87" transform="translate(1272.67 674.4) scale(1.02 1)" xlink:href="#New_Symbol"/>
        <use width="87" height="87" transform="translate(1209.67 697.31) scale(1.02 1)" xlink:href="#New_Symbol"/>
        <use width="87" height="87" transform="translate(1154.25 684.33) scale(1.02 1)" xlink:href="#New_Symbol"/>
        <use width="87" height="87" transform="translate(1234.48 604.07) scale(1.02 1)" xlink:href="#New_Symbol"/>
        <use width="87" height="87" transform="translate(1283.03 569.75) scale(1.02 1)" xlink:href="#New_Symbol"/>
        <use width="87" height="87" transform="translate(1360.85 560.84) scale(1.02 1)" xlink:href="#New_Symbol"/>
        <use width="87" height="87" transform="translate(1483.05 532.98) scale(1.02 1)" xlink:href="#New_Symbol"/>
        <use width="87" height="87" transform="translate(1604.83 548.25) scale(1.02 1)" xlink:href="#New_Symbol"/>
        <use width="87" height="87" transform="translate(1653.77 593.74) scale(1.02 1)" xlink:href="#New_Symbol"/>
        <use width="87" height="87" transform="translate(1681.09 663.21) scale(1.02 1)" xlink:href="#New_Symbol"/>
        <use width="87" height="87" transform="translate(1734.57 616.99) scale(1.02 1)" xlink:href="#New_Symbol"/>
        <use width="87" height="87" transform="translate(1751.67 506.97) scale(1.02 1)" xlink:href="#New_Symbol"/>
        <use width="87" height="87" transform="translate(1468.72 458.99) scale(1.02 1)" xlink:href="#New_Symbol"/>
        <use width="87" height="87" transform="translate(1386.8 490.63) scale(1.02 1)" xlink:href="#New_Symbol"/>
        <use width="87" height="87" transform="translate(1321 409.17) scale(1.02 1)" xlink:href="#New_Symbol"/>
        <use width="87" height="87" transform="translate(1233.94 297.46) scale(1.02 1)" xlink:href="#New_Symbol"/>
        <use width="87" height="87" transform="translate(1172.58 302.06) scale(1.02 1)" xlink:href="#New_Symbol"/>
        <use width="87" height="87" transform="translate(1065.09 228.66) scale(1.02 1)" xlink:href="#New_Symbol"/>
        <use width="87" height="87" transform="translate(1018.66 151.69) scale(1.02 1)" xlink:href="#New_Symbol"/>
        <use width="87" height="87" transform="translate(927.47 76.49) scale(1.02 1)" xlink:href="#New_Symbol"/>
        <use width="87" height="87" transform="translate(820.39 64) scale(1.02 1)" xlink:href="#New_Symbol"/>
        <use width="87" height="87" transform="translate(769.13 89.54) scale(1.02 1)" xlink:href="#New_Symbol"/>
        <use width="87" height="87" transform="translate(655.46 116.2) scale(1.02 1)" xlink:href="#New_Symbol"/>
        <use width="87" height="87" transform="translate(517.51 115.49) scale(1.02 1)" xlink:href="#New_Symbol"/>
        <use width="87" height="87" transform="translate(381.61 136.58) scale(1.02 1)" xlink:href="#New_Symbol"/>
        <use width="87" height="87" transform="translate(308.46 130.4) scale(1.02 1)" xlink:href="#New_Symbol"/>
        <use width="87" height="87" transform="translate(275.66 155.48) scale(1.02 1)" xlink:href="#New_Symbol"/>
        <use width="87" height="87" transform="translate(279.23 191.26) scale(1.02 1)" xlink:href="#New_Symbol"/>
        <use width="87" height="87" transform="translate(238.45 274.35) scale(1.02 1)" xlink:href="#New_Symbol"/>
        <use width="87" height="87" transform="translate(83.09 336.72) scale(1.02 1)" xlink:href="#New_Symbol"/>
        <use width="87" height="87" transform="translate(29.13 443.57) scale(1.02 1)" xlink:href="#New_Symbol"/>
        <use width="87" height="87" transform="translate(-17.42 527.82) scale(1.02 1)" xlink:href="#New_Symbol"/>
        <use width="87" height="87" transform="translate(-3.2 561.42) scale(1.02 1)" xlink:href="#New_Symbol"/>
        <use width="87" height="87" transform="translate(-14.19 429.52) scale(1.02 1)" xlink:href="#New_Symbol"/>
        <use width="87" height="87" transform="translate(-3.22 382.07) scale(1.02 1)" xlink:href="#New_Symbol"/>
        <use width="87" height="87" transform="translate(3.28 341.11) scale(1.02 1)" xlink:href="#New_Symbol"/>
        <use width="87" height="87" transform="translate(-48.79 330.45) scale(1.02 1)" xlink:href="#New_Symbol"/>
        <use width="87" height="87" transform="translate(-46.45 290.51) scale(1.02 1)" xlink:href="#New_Symbol"/>
        <use width="87" height="87" transform="translate(-37.34 237.29) scale(1.02 1)" xlink:href="#New_Symbol"/>
        <use width="87" height="87" transform="translate(-24.11 148.22) scale(1.02 1)" xlink:href="#New_Symbol"/>
        <use width="87" height="87" transform="translate(-12.31 114.82) scale(1.02 1)" xlink:href="#New_Symbol"/>
        <use width="87" height="87" transform="translate(25.22 99.39) scale(1.02 1)" xlink:href="#New_Symbol"/>
        <use width="87" height="87" transform="translate(116.76 102.87) scale(1.02 1)" xlink:href="#New_Symbol"/>
        <use width="87" height="87" transform="translate(212.33 88.33) scale(1.02 1)" xlink:href="#New_Symbol"/>
        <use width="87" height="87" transform="translate(253.51 66.42) scale(1.02 1)" xlink:href="#New_Symbol"/>
        <use width="87" height="87" transform="translate(316.79 49.73) scale(1.02 1)" xlink:href="#New_Symbol"/>
        <use width="87" height="87" transform="translate(413.5 87.33) scale(1.02 1)" xlink:href="#New_Symbol"/>
        <use width="87" height="87" transform="translate(488.64 176.54) scale(1.02 1)" xlink:href="#New_Symbol"/>
        <use width="87" height="87" transform="translate(563.3 191.01) scale(1.02 1)" xlink:href="#New_Symbol"/>
        <use width="87" height="87" transform="translate(653.04 185.81) scale(1.02 1)" xlink:href="#New_Symbol"/>
        <use width="87" height="87" transform="translate(611.9 148.31) scale(1.02 1)" xlink:href="#New_Symbol"/>
        <use width="87" height="87" transform="translate(446.11 249.94) scale(1.02 1)" xlink:href="#New_Symbol"/>
        <use width="87" height="87" transform="translate(369.83 346.38) scale(1.02 1)" xlink:href="#New_Symbol"/>
        <use width="87" height="87" transform="translate(299.36 416.55) scale(1.02 1)" xlink:href="#New_Symbol"/>
        <use width="87" height="87" transform="translate(190.04 494.28) scale(1.02 1)" xlink:href="#New_Symbol"/>
        <use width="87" height="87" transform="translate(122.26 580.93) scale(1.02 1)" xlink:href="#New_Symbol"/>
        <use width="87" height="87" transform="translate(60.19 605.83) scale(1.02 1)" xlink:href="#New_Symbol"/>
        <use width="87" height="87" transform="translate(-1.48 613.69) scale(1.02 1)" xlink:href="#New_Symbol"/>
        <use width="87" height="87" transform="translate(-40.37 624.2) scale(1.02 1)" xlink:href="#New_Symbol"/>
        <use width="87" height="87" transform="translate(-40.02 682.21) scale(1.02 1)" xlink:href="#New_Symbol"/>
        <use width="87" height="87" transform="translate(66.39 726.59) scale(1.02 1)" xlink:href="#New_Symbol"/>
        <use width="87" height="87" transform="translate(147.52 745.23) scale(1.02 1)" xlink:href="#New_Symbol"/>
        <use width="87" height="87" transform="translate(94.78 801.62) scale(1.02 1)" xlink:href="#New_Symbol"/>
        <use width="87" height="87" transform="translate(227.46 847.48) scale(1.02 1)" xlink:href="#New_Symbol"/>
        <use width="87" height="87" transform="translate(265.38 769.91) scale(1.02 1)" xlink:href="#New_Symbol"/>
        <use width="87" height="87" transform="translate(256.98 712.08) scale(1.02 1)" xlink:href="#New_Symbol"/>
        <use width="87" height="87" transform="translate(256.45 633.73) scale(1.02 1)" xlink:href="#New_Symbol"/>
        <use width="87" height="87" transform="translate(200.29 641.62) scale(1.02 1)" xlink:href="#New_Symbol"/>
        <use width="87" height="87" transform="translate(299.81 680.34) scale(1.02 1)" xlink:href="#New_Symbol"/>
        <use width="87" height="87" transform="translate(333.58 682.19) scale(1.02 1)" xlink:href="#New_Symbol"/>
        <use width="87" height="87" transform="translate(422.17 848.31) scale(1.02 1)" xlink:href="#New_Symbol"/>
        <use width="87" height="87" transform="translate(591.96 886.32) scale(1.02 1)" xlink:href="#New_Symbol"/>
        <use width="87" height="87" transform="translate(632.5 911.55) scale(1.02 1)" xlink:href="#New_Symbol"/>
        <use width="87" height="87" transform="translate(713.82 930.68) scale(1.02 1)" xlink:href="#New_Symbol"/>
        <use width="87" height="87" transform="translate(753.53 969.71) scale(1.02 1)" xlink:href="#New_Symbol"/>
        <use width="87" height="87" transform="translate(957.04 965.83) scale(1.02 1)" xlink:href="#New_Symbol"/>
        <use width="87" height="87" transform="translate(1029.64 950.19) scale(1.02 1)" xlink:href="#New_Symbol"/>
        <use width="87" height="87" transform="translate(1116.12 927.8) scale(1.02 1)" xlink:href="#New_Symbol"/>
        <use width="87" height="87" transform="translate(1222.49 922.28) scale(1.02 1)" xlink:href="#New_Symbol"/>
        <use width="87" height="87" transform="translate(1267.63 932.62) scale(1.02 1)" xlink:href="#New_Symbol"/>
        <use width="87" height="87" transform="translate(1362.34 945.78) scale(1.02 1)" xlink:href="#New_Symbol"/>
        <use width="87" height="87" transform="translate(1508.42 939.06) scale(1.02 1)" xlink:href="#New_Symbol"/>
        <use width="87" height="87" transform="translate(1599.77 919.45) scale(1.02 1)" xlink:href="#New_Symbol"/>
        <use width="87" height="87" transform="translate(1634.48 895.02) scale(1.02 1)" xlink:href="#New_Symbol"/>
        <use width="87" height="87" transform="translate(1704.35 889.93) scale(1.02 1)" xlink:href="#New_Symbol"/>
        <use width="87" height="87" transform="translate(1748.35 880.88) scale(1.02 1)" xlink:href="#New_Symbol"/>
        <use width="87" height="87" transform="translate(1543.01 901.07) scale(1.02 1)" xlink:href="#New_Symbol"/>
        <use width="87" height="87" transform="translate(1444.38 899.24) scale(1.02 1)" xlink:href="#New_Symbol"/>
        <use width="87" height="87" transform="translate(1433.23 861.59) scale(1.02 1)" xlink:href="#New_Symbol"/>
        <use width="87" height="87" transform="translate(1439.88 829.48) scale(1.02 1)" xlink:href="#New_Symbol"/>
        <use width="87" height="87" transform="translate(1352.97 846.54) scale(1.02 1)" xlink:href="#New_Symbol"/>
        <use width="87" height="87" transform="translate(1321.3 792.46) scale(1.02 1)" xlink:href="#New_Symbol"/>
        <use width="87" height="87" transform="translate(1130.59 800.75) scale(1.02 1)" xlink:href="#New_Symbol"/>
        <use width="87" height="87" transform="translate(1079.36 748.15) scale(1.02 1)" xlink:href="#New_Symbol"/>
        <use width="87" height="87" transform="translate(978.18 713.08) scale(1.02 1)" xlink:href="#New_Symbol"/>
        <use width="87" height="87" transform="translate(851.1 643.03) scale(1.02 1)" xlink:href="#New_Symbol"/>
        <use width="87" height="87" transform="translate(756.24 587.99) scale(1.02 1)" xlink:href="#New_Symbol"/>
        <use width="87" height="87" transform="translate(680.8 583.35) scale(1.02 1)" xlink:href="#New_Symbol"/>
        <use width="87" height="87" transform="translate(593.08 573.2) scale(1.02 1)" xlink:href="#New_Symbol"/>
        <use width="87" height="87" transform="translate(557.85 601.39) scale(1.02 1)" xlink:href="#New_Symbol"/>
        <use width="87" height="87" transform="translate(435.41 635.02) scale(1.02 1)" xlink:href="#New_Symbol"/>
        <use width="87" height="87" transform="translate(388.07 634.42) scale(1.02 1)" xlink:href="#New_Symbol"/>
        <use width="87" height="87" transform="translate(467.83 707.93) scale(1.02 1)" xlink:href="#New_Symbol"/>
        <use width="87" height="87" transform="translate(565.06 672.92) scale(1.02 1)" xlink:href="#New_Symbol"/>
        <use width="87" height="87" transform="translate(569.47 385.19) scale(1.02 1)" xlink:href="#New_Symbol"/>
        <use width="87" height="87" transform="translate(654.75 69.95) scale(1.02 1)" xlink:href="#New_Symbol"/>
        <use width="87" height="87" transform="translate(761.3 26.64) scale(1.02 1)" xlink:href="#New_Symbol"/>
        <use width="87" height="87" transform="translate(873.82 89.7) scale(1.02 1)" xlink:href="#New_Symbol"/>
        <use width="87" height="87" transform="translate(1000.23 207.58) scale(1.02 1)" xlink:href="#New_Symbol"/>
        <use width="87" height="87" transform="translate(1055.09 292.13) scale(1.02 1)" xlink:href="#New_Symbol"/>
        <use width="87" height="87" transform="translate(1123.45 391.11) scale(1.02 1)" xlink:href="#New_Symbol"/>
        <use width="87" height="87" transform="translate(1243.39 418) scale(1.02 1)" xlink:href="#New_Symbol"/>
        <use width="87" height="87" transform="translate(1282.08 393.88) scale(1.02 1)" xlink:href="#New_Symbol"/>
        <use width="87" height="87" transform="translate(1167.65 400.29) scale(1.02 1)" xlink:href="#New_Symbol"/>
        <use width="87" height="87" transform="translate(905.47 367.37) scale(1.02 1)" xlink:href="#New_Symbol"/>
        <use width="87" height="87" transform="translate(837.29 356.63) scale(1.02 1)" xlink:href="#New_Symbol"/>
        <use width="87" height="87" transform="translate(812.2 326.74) scale(1.02 1)" xlink:href="#New_Symbol"/>
        <use width="87" height="87" transform="translate(775.67 324.04) scale(1.02 1)" xlink:href="#New_Symbol"/>
        <use width="87" height="87" transform="translate(782.43 393.26) scale(1.02 1)" xlink:href="#New_Symbol"/>
        <use width="87" height="87" transform="translate(796.74 458.26) scale(1.02 1)" xlink:href="#New_Symbol"/>
        <use width="87" height="87" transform="translate(617.8 471.44) scale(1.02 1)" xlink:href="#New_Symbol"/>
        <use width="87" height="87" transform="translate(482.76 521.51) scale(1.02 1)" xlink:href="#New_Symbol"/>
        <use width="87" height="87" transform="translate(404.04 511.61) scale(1.02 1)" xlink:href="#New_Symbol"/>
        <use width="87" height="87" transform="translate(313.37 469.52) scale(1.02 1)" xlink:href="#New_Symbol"/>
        <use width="87" height="87" transform="translate(172.52 421.47) scale(1.02 1)" xlink:href="#New_Symbol"/>
        <use width="87" height="87" transform="translate(149.69 478.4) scale(1.02 1)" xlink:href="#New_Symbol"/>
        <use width="87" height="87" transform="translate(197.26 526.55) scale(1.02 1)" xlink:href="#New_Symbol"/>
        <use width="87" height="87" transform="translate(183.26 451.79) scale(1.02 1)" xlink:href="#New_Symbol"/>
        <use width="87" height="87" transform="translate(137.69 349.57) scale(1.02 1)" xlink:href="#New_Symbol"/>
        <use width="87" height="87" transform="translate(76.79 275.46) scale(1.02 1)" xlink:href="#New_Symbol"/>
        <use width="87" height="87" transform="translate(111.12 269.07) scale(1.02 1)" xlink:href="#New_Symbol"/>
        <use width="87" height="87" transform="translate(290.31 374.47) scale(1.02 1)" xlink:href="#New_Symbol"/>
        <use width="87" height="87" transform="translate(370.88 439.2) scale(1.02 1)" xlink:href="#New_Symbol"/>
        <use width="87" height="87" transform="translate(586.96 445.75) scale(1.02 1)" xlink:href="#New_Symbol"/>
        <use width="87" height="87" transform="translate(1022.59 394.38) scale(1.02 1)" xlink:href="#New_Symbol"/>
        <use width="87" height="87" transform="translate(1118.57 350.12) scale(1.02 1)" xlink:href="#New_Symbol"/>
        <use width="87" height="87" transform="translate(1225.46 330.26) scale(1.02 1)" xlink:href="#New_Symbol"/>
        <use width="87" height="87" transform="translate(1308.74 261.39) scale(1.02 1)" xlink:href="#New_Symbol"/>
        <use width="87" height="87" transform="translate(1371.42 207.35) scale(1.02 1)" xlink:href="#New_Symbol"/>
        <use width="87" height="87" transform="translate(1430.02 201.17) scale(1.02 1)" xlink:href="#New_Symbol"/>
        <use width="87" height="87" transform="translate(1466.77 203.51) scale(1.02 1)" xlink:href="#New_Symbol"/>
        <use width="87" height="87" transform="translate(1476.68 245.23) scale(1.02 1)" xlink:href="#New_Symbol"/>
        <use width="87" height="87" transform="translate(1331.59 182.51) scale(1.02 1)" xlink:href="#New_Symbol"/>
        <use width="87" height="87" transform="translate(1273.92 167.93) scale(1.02 1)" xlink:href="#New_Symbol"/>
        <use width="87" height="87" transform="translate(1220.89 173.95) scale(1.02 1)" xlink:href="#New_Symbol"/>
        <use width="87" height="87" transform="translate(1173.29 154.31) scale(1.02 1)" xlink:href="#New_Symbol"/>
        <use width="87" height="87" transform="translate(1081.9 120.31) scale(1.02 1)" xlink:href="#New_Symbol"/>
        <use width="87" height="87" transform="translate(980.17 127.19) scale(1.02 1)" xlink:href="#New_Symbol"/>
        <use width="87" height="87" transform="translate(898.55 146.74) scale(1.02 1)" xlink:href="#New_Symbol"/>
        <use width="87" height="87" transform="translate(813.69 128.82) scale(1.02 1)" xlink:href="#New_Symbol"/>
        <use width="87" height="87" transform="translate(707.84 261.15) scale(1.02 1)" xlink:href="#New_Symbol"/>
        <use width="87" height="87" transform="translate(659.24 324.27) scale(1.02 1)" xlink:href="#New_Symbol"/>
        <use width="87" height="87" transform="translate(609.92 320.36) scale(1.02 1)" xlink:href="#New_Symbol"/>
        <use width="87" height="87" transform="translate(430.82 295.54) scale(1.02 1)" xlink:href="#New_Symbol"/>
        <use width="87" height="87" transform="translate(391.88 261.78) scale(1.02 1)" xlink:href="#New_Symbol"/>
        <use width="87" height="87" transform="translate(347.88 227.47) scale(1.02 1)" xlink:href="#New_Symbol"/>
        <use width="87" height="87" transform="translate(292.48 235.07) scale(1.02 1)" xlink:href="#New_Symbol"/>
        <use width="87" height="87" transform="translate(246.64 233.45) scale(1.02 1)" xlink:href="#New_Symbol"/>
        <use width="87" height="87" transform="translate(360.21 286.72) scale(1.02 1)" xlink:href="#New_Symbol"/>
        <use width="87" height="87" transform="translate(546.66 282.28) scale(1.02 1)" xlink:href="#New_Symbol"/>
        <use width="87" height="87" transform="translate(716.38 355.78) scale(1.02 1)" xlink:href="#New_Symbol"/>
        <use width="87" height="87" transform="translate(1035.67 448.01) scale(1.02 1)" xlink:href="#New_Symbol"/>
        <use width="87" height="87" transform="translate(1230.8 371.63) scale(1.02 1)" xlink:href="#New_Symbol"/>
        <use width="87" height="87" transform="translate(1327.85 336.53) scale(1.02 1)" xlink:href="#New_Symbol"/>
        <use width="87" height="87" transform="translate(1502.01 310.86) scale(1.02 1)" xlink:href="#New_Symbol"/>
        <use width="87" height="87" transform="translate(1531.94 366.73) scale(1.02 1)" xlink:href="#New_Symbol"/>
        <use width="87" height="87" transform="translate(1544.14 471.31) scale(1.02 1)" xlink:href="#New_Symbol"/>
        <use width="87" height="87" transform="translate(1592.51 494.66) scale(1.02 1)" xlink:href="#New_Symbol"/>
        <use width="87" height="87" transform="translate(1525.76 556.55) scale(1.02 1)" xlink:href="#New_Symbol"/>
        <use width="87" height="87" transform="translate(1494.01 585.1) scale(1.02 1)" xlink:href="#New_Symbol"/>
        <use width="87" height="87" transform="translate(1445.1 639.29) scale(1.02 1)" xlink:href="#New_Symbol"/>
        <use width="87" height="87" transform="translate(1397.83 681.89) scale(1.02 1)" xlink:href="#New_Symbol"/>
        <use width="87" height="87" transform="translate(1449.17 703.32) scale(1.02 1)" xlink:href="#New_Symbol"/>
        <use width="87" height="87" transform="translate(1485.81 694.63) scale(1.02 1)" xlink:href="#New_Symbol"/>
        <use width="87" height="87" transform="translate(1537.75 681.36) scale(1.02 1)" xlink:href="#New_Symbol"/>
        <use width="87" height="87" transform="translate(1686.49 586.91) scale(1.02 1)" xlink:href="#New_Symbol"/>
        <use width="87" height="87" transform="translate(1707.13 400.25) scale(1.02 1)" xlink:href="#New_Symbol"/>
        <use width="87" height="87" transform="translate(1679.09 319.64) scale(1.02 1)" xlink:href="#New_Symbol"/>
        <use width="87" height="87" transform="translate(1676.04 271.71) scale(1.02 1)" xlink:href="#New_Symbol"/>
        <use width="87" height="87" transform="translate(1679.57 202.51) scale(1.02 1)" xlink:href="#New_Symbol"/>
        <use width="87" height="87" transform="translate(1708.7 178.76) scale(1.02 1)" xlink:href="#New_Symbol"/>
        <use width="87" height="87" transform="translate(1684.38 148.86) scale(1.02 1)" xlink:href="#New_Symbol"/>
        <use width="87" height="87" transform="translate(1517.75 163.88) scale(1.02 1)" xlink:href="#New_Symbol"/>
        <use width="87" height="87" transform="translate(1442.38 137.42) scale(1.02 1)" xlink:href="#New_Symbol"/>
        <use width="87" height="87" transform="translate(1341.46 133.91) scale(1.02 1)" xlink:href="#New_Symbol"/>
        <use width="87" height="87" transform="translate(1292.33 98.43) scale(1.02 1)" xlink:href="#New_Symbol"/>
        <use width="87" height="87" transform="translate(1209.45 51.77) scale(1.02 1)" xlink:href="#New_Symbol"/>
        <use width="87" height="87" transform="translate(1138.16 40.54) scale(1.02 1)" xlink:href="#New_Symbol"/>
        <use width="87" height="87" transform="translate(1070.16 44.56) scale(1.02 1)" xlink:href="#New_Symbol"/>
        <use width="87" height="87" transform="translate(1021.36 53.9) scale(1.02 1)" xlink:href="#New_Symbol"/>
        <use width="87" height="87" transform="translate(974.82 48.02) scale(1.02 1)" xlink:href="#New_Symbol"/>
        <use width="87" height="87" transform="translate(875.02 32.05) scale(1.02 1)" xlink:href="#New_Symbol"/>
        <use width="87" height="87" transform="translate(609.62 213.05) scale(1.02 1)" xlink:href="#New_Symbol"/>
        <use width="87" height="87" transform="translate(500.25 282.13) scale(1.02 1)" xlink:href="#New_Symbol"/>
        <use width="87" height="87" transform="translate(507.89 327.11) scale(1.02 1)" xlink:href="#New_Symbol"/>
        <use width="87" height="87" transform="translate(444.1 366.46) scale(1.02 1)" xlink:href="#New_Symbol"/>
        <use width="87" height="87" transform="translate(433.87 403.85) scale(1.02 1)" xlink:href="#New_Symbol"/>
        <use width="87" height="87" transform="translate(358.46 475.19) scale(1.02 1)" xlink:href="#New_Symbol"/>
        <use width="87" height="87" transform="translate(314.5 528.68) scale(1.02 1)" xlink:href="#New_Symbol"/>
        <use width="87" height="87" transform="translate(303.58 582) scale(1.02 1)" xlink:href="#New_Symbol"/>
        <use width="87" height="87" transform="translate(224.37 672.01) scale(1.02 1)" xlink:href="#New_Symbol"/>
        <use width="87" height="87" transform="translate(144.86 679.8) scale(1.02 1)" xlink:href="#New_Symbol"/>
        <use width="87" height="87" transform="translate(117.19 711.77) scale(1.02 1)" xlink:href="#New_Symbol"/>
        <use width="87" height="87" transform="translate(132.99 776.97) scale(1.02 1)" xlink:href="#New_Symbol"/>
        <use width="87" height="87" transform="translate(279.23 851.32) scale(1.02 1)" xlink:href="#New_Symbol"/>
        <use width="87" height="87" transform="translate(360.77 859.75) scale(1.02 1)" xlink:href="#New_Symbol"/>
        <use width="87" height="87" transform="translate(378.46 827.16) scale(1.02 1)" xlink:href="#New_Symbol"/>
        <use width="87" height="87" transform="translate(510.19 847.87) scale(1.02 1)" xlink:href="#New_Symbol"/>
        <use width="87" height="87" transform="translate(562.82 835.94) scale(1.02 1)" xlink:href="#New_Symbol"/>
        <use width="87" height="87" transform="translate(-73.39 1019.94) scale(1.02 1)" xlink:href="#New_Symbol"/>
        <use width="87" height="87" transform="translate(-22.95 1005.47) scale(1.02 1)" xlink:href="#New_Symbol"/>
        <use width="87" height="87" transform="translate(-3.26 1036.32) scale(1.02 1)" xlink:href="#New_Symbol"/>
        <use width="87" height="87" transform="translate(53.78 1044.92) scale(1.02 1)" xlink:href="#New_Symbol"/>
        <use width="87" height="87" transform="translate(113.5 1057.44) scale(1.02 1)" xlink:href="#New_Symbol"/>
        <use width="87" height="87" transform="translate(184.29 1066.17) scale(1.02 1)" xlink:href="#New_Symbol"/>
        <use width="87" height="87" transform="translate(427.91 1031.62) scale(1.02 1)" xlink:href="#New_Symbol"/>
        <use width="87" height="87" transform="translate(398.35 1004.22) scale(1.02 1)" xlink:href="#New_Symbol"/>
        <use width="87" height="87" transform="translate(415.91 966.42) scale(1.02 1)" xlink:href="#New_Symbol"/>
        <use width="87" height="87" transform="translate(423.72 929.51) scale(1.02 1)" xlink:href="#New_Symbol"/>
        <use width="87" height="87" transform="translate(522.06 959.01) scale(1.02 1)" xlink:href="#New_Symbol"/>
        <use width="87" height="87" transform="translate(632 971.21) scale(1.02 1)" xlink:href="#New_Symbol"/>
        <use width="87" height="87" transform="translate(685.83 953.37) scale(1.02 1)" xlink:href="#New_Symbol"/>
        <use width="87" height="87" transform="translate(768.78 918.19) scale(1.02 1)" xlink:href="#New_Symbol"/>
        <use width="87" height="87" transform="translate(841.74 942.19) scale(1.02 1)" xlink:href="#New_Symbol"/>
        <use width="87" height="87" transform="translate(859.48 991.29) scale(1.02 1)" xlink:href="#New_Symbol"/>
        <use width="87" height="87" transform="translate(910.73 1027.94) scale(1.02 1)" xlink:href="#New_Symbol"/>
        <use width="87" height="87" transform="translate(956.47 1027.27) scale(1.02 1)" xlink:href="#New_Symbol"/>
        <use width="87" height="87" transform="translate(1002.31 1009.67) scale(1.02 1)" xlink:href="#New_Symbol"/>
        <use width="87" height="87" transform="translate(1070.78 1000.99) scale(1.02 1)" xlink:href="#New_Symbol"/>
        <use width="87" height="87" transform="translate(1122.65 996.7) scale(1.02 1)" xlink:href="#New_Symbol"/>
        <use width="87" height="87" transform="translate(1181.21 991.49) scale(1.02 1)" xlink:href="#New_Symbol"/>
        <use width="87" height="87" transform="translate(1257.72 1003.8) scale(1.02 1)" xlink:href="#New_Symbol"/>
        <use width="87" height="87" transform="translate(1314.95 1014.86) scale(1.02 1)" xlink:href="#New_Symbol"/>
        <use width="87" height="87" transform="translate(1363.44 1013.31) scale(1.02 1)" xlink:href="#New_Symbol"/>
        <use width="87" height="87" transform="translate(1416.68 1005.2) scale(1.02 1)" xlink:href="#New_Symbol"/>
        <use width="87" height="87" transform="translate(1473.05 985.79) scale(1.02 1)" xlink:href="#New_Symbol"/>
        <use width="87" height="87" transform="translate(1539.57 986.39) scale(1.02 1)" xlink:href="#New_Symbol"/>
        <use width="87" height="87" transform="translate(1635.88 983.01) scale(1.02 1)" xlink:href="#New_Symbol"/>
        <use width="87" height="87" transform="translate(1668.13 974.41) scale(1.02 1)" xlink:href="#New_Symbol"/>
        <use width="87" height="87" transform="translate(1668.71 939.96) scale(1.02 1)" xlink:href="#New_Symbol"/>
        <use width="87" height="87" transform="translate(1737.84 947.5) scale(1.02 1)" xlink:href="#New_Symbol"/>
        <use width="87" height="87" transform="translate(1772.26 916.58) scale(1.02 1)" xlink:href="#New_Symbol"/>
        <use width="87" height="87" transform="translate(1768.23 833.76) scale(1.02 1)" xlink:href="#New_Symbol"/>
        <use width="87" height="87" transform="translate(1750.59 778.54) scale(1.02 1)" xlink:href="#New_Symbol"/>
        <use width="87" height="87" transform="translate(1788.98 725.8) scale(1.02 1)" xlink:href="#New_Symbol"/>
        <use width="87" height="87" transform="translate(1815.28 680.45) scale(1.02 1)" xlink:href="#New_Symbol"/>
        <use width="87" height="87" transform="translate(1857.97 523.14) scale(1.02 1)" xlink:href="#New_Symbol"/>
        <use width="87" height="87" transform="translate(1867.15 384.68) scale(1.02 1)" xlink:href="#New_Symbol"/>
        <use width="87" height="87" transform="translate(1864.43 336.11) scale(1.02 1)" xlink:href="#New_Symbol"/>
        <use width="87" height="87" transform="translate(1866.32 298.95) scale(1.02 1)" xlink:href="#New_Symbol"/>
        <use width="87" height="87" transform="translate(1846.09 246.65) scale(1.02 1)" xlink:href="#New_Symbol"/>
        <use width="87" height="87" transform="translate(1785.78 226.62) scale(1.02 1)" xlink:href="#New_Symbol"/>
        <use width="87" height="87" transform="translate(1732.96 238.76) scale(1.02 1)" xlink:href="#New_Symbol"/>
        <use width="87" height="87" transform="translate(1692.77 234.77) scale(1.02 1)" xlink:href="#New_Symbol"/>
        <use width="87" height="87" transform="translate(1641.81 206.24) scale(1.02 1)" xlink:href="#New_Symbol"/>
        <use width="87" height="87" transform="translate(1632.09 153.66) scale(1.02 1)" xlink:href="#New_Symbol"/>
        <use width="87" height="87" transform="translate(1570.13 80.15) scale(1.02 1)" xlink:href="#New_Symbol"/>
        <use width="87" height="87" transform="translate(1534.5 61.92) scale(1.02 1)" xlink:href="#New_Symbol"/>
        <use width="87" height="87" transform="translate(1492.41 38.2) scale(1.02 1)" xlink:href="#New_Symbol"/>
        <use width="87" height="87" transform="translate(1436.25 31.46) scale(1.02 1)" xlink:href="#New_Symbol"/>
        <use width="87" height="87" transform="translate(1386.16 33.3) scale(1.02 1)" xlink:href="#New_Symbol"/>
        <use width="87" height="87" transform="translate(1313.79 42.94) scale(1.02 1)" xlink:href="#New_Symbol"/>
        <use width="87" height="87" transform="translate(1280.59 33.11) scale(1.02 1)" xlink:href="#New_Symbol"/>
        <use width="87" height="87" transform="translate(1168.93 97.95) scale(1.02 1)" xlink:href="#New_Symbol"/>
        <use width="87" height="87" transform="translate(1097.85 152.99) scale(1.02 1)" xlink:href="#New_Symbol"/>
        <use width="87" height="87" transform="translate(1005.37 261.2) scale(1.02 1)" xlink:href="#New_Symbol"/>
        <use width="87" height="87" transform="translate(989.98 365.68) scale(1.02 1)" xlink:href="#New_Symbol"/>
        <use width="87" height="87" transform="translate(986.87 424.89) scale(1.02 1)" xlink:href="#New_Symbol"/>
        <use width="87" height="87" transform="translate(966.13 549.97) scale(1.02 1)" xlink:href="#New_Symbol"/>
        <use width="87" height="87" transform="translate(1053.02 595.85) scale(1.02 1)" xlink:href="#New_Symbol"/>
        <use width="87" height="87" transform="translate(1097.46 593) scale(1.02 1)" xlink:href="#New_Symbol"/>
        <use width="87" height="87" transform="translate(1161.15 626.57) scale(1.02 1)" xlink:href="#New_Symbol"/>
        <use width="87" height="87" transform="translate(1167.2 595.07) scale(1.02 1)" xlink:href="#New_Symbol"/>
        <use width="87" height="87" transform="translate(1112.12 699.93) scale(1.02 1)" xlink:href="#New_Symbol"/>
        <use width="87" height="87" transform="translate(1043.72 800.73) scale(1.02 1)" xlink:href="#New_Symbol"/>
        <use width="87" height="87" transform="translate(971.39 868.91) scale(1.02 1)" xlink:href="#New_Symbol"/>
        <use width="87" height="87" transform="translate(878.53 891.19) scale(1.02 1)" xlink:href="#New_Symbol"/>
        <use width="87" height="87" transform="translate(757.03 829.33) scale(1.02 1)" xlink:href="#New_Symbol"/>
        <use width="87" height="87" transform="translate(672.81 785.21) scale(1.02 1)" xlink:href="#New_Symbol"/>
        <use width="87" height="87" transform="translate(584.11 789.92) scale(1.02 1)" xlink:href="#New_Symbol"/>
        <use width="87" height="87" transform="translate(504.04 756.85) scale(1.02 1)" xlink:href="#New_Symbol"/>
        <use width="87" height="87" transform="translate(423.64 722.88) scale(1.02 1)" xlink:href="#New_Symbol"/>
        <use width="87" height="87" transform="translate(371.66 733.27) scale(1.02 1)" xlink:href="#New_Symbol"/>
        <use width="87" height="87" transform="translate(353.55 787.73) scale(1.02 1)" xlink:href="#New_Symbol"/>
        <use width="87" height="87" transform="translate(305.17 824.83) scale(1.02 1)" xlink:href="#New_Symbol"/>
        <use width="87" height="87" transform="translate(239.43 803.23) scale(1.02 1)" xlink:href="#New_Symbol"/>
        <use width="87" height="87" transform="translate(195.91 771.05) scale(1.02 1)" xlink:href="#New_Symbol"/>
        <use width="87" height="87" transform="translate(182.44 816.01) scale(1.02 1)" xlink:href="#New_Symbol"/>
        <use width="87" height="87" transform="translate(171.74 859.58) scale(1.02 1)" xlink:href="#New_Symbol"/>
        <use width="87" height="87" transform="translate(145.1 831.37) scale(1.02 1)" xlink:href="#New_Symbol"/>
        <use width="87" height="87" transform="translate(4.29 741.38) scale(1.02 1)" xlink:href="#New_Symbol"/>
        <use width="87" height="87" transform="translate(5.34 817.05) scale(1.02 1)" xlink:href="#New_Symbol"/>
        <use width="87" height="87" transform="translate(-28.48 755.29) scale(1.02 1)" xlink:href="#New_Symbol"/>
        <use width="87" height="87" transform="translate(-21.46 791.59) scale(1.02 1)" xlink:href="#New_Symbol"/>
        <use width="87" height="87" transform="translate(15.51 776.4) scale(1.02 1)" xlink:href="#New_Symbol"/>
        <use width="87" height="87" transform="translate(52.92 806.89) scale(1.02 1)" xlink:href="#New_Symbol"/>
        <use width="87" height="87" transform="translate(123.78 883.07) scale(1.02 1)" xlink:href="#New_Symbol"/>
        <use width="87" height="87" transform="translate(184.73 904.06) scale(1.02 1)" xlink:href="#New_Symbol"/>
        <use width="87" height="87" transform="translate(251.41 908.89) scale(1.02 1)" xlink:href="#New_Symbol"/>
        <use width="87" height="87" transform="translate(1783.45 412.23) scale(1.02 1)" xlink:href="#New_Symbol"/>
        <use width="87" height="87" transform="translate(1753.25 391.99) scale(1.02 1)" xlink:href="#New_Symbol"/>
        <use width="87" height="87" transform="translate(1766.86 446.9) scale(1.02 1)" xlink:href="#New_Symbol"/>
        <use width="87" height="87" transform="translate(1736.85 434.33) scale(1.02 1)" xlink:href="#New_Symbol"/>
        <use width="87" height="87" transform="translate(1696.97 445.01) scale(1.02 1)" xlink:href="#New_Symbol"/>
        <use width="87" height="87" transform="translate(1635.92 396.75) scale(1.02 1)" xlink:href="#New_Symbol"/>
        <use width="87" height="87" transform="translate(1637.26 438.57) scale(1.02 1)" xlink:href="#New_Symbol"/>
        <use width="87" height="87" transform="translate(1588.33 389.16) scale(1.02 1)" xlink:href="#New_Symbol"/>
        <use width="87" height="87" transform="translate(1587.87 437.7) scale(1.02 1)" xlink:href="#New_Symbol"/>
        <use width="87" height="87" transform="translate(1562 416.17) scale(1.02 1)" xlink:href="#New_Symbol"/>
        <use width="87" height="87" transform="translate(1489.92 413.43) scale(1.02 1)" xlink:href="#New_Symbol"/>
        <use width="87" height="87" transform="translate(1429.05 386.3) scale(1.02 1)" xlink:href="#New_Symbol"/>
        <use width="87" height="87" transform="translate(1395.07 411.65) scale(1.02 1)" xlink:href="#New_Symbol"/>
        <use width="87" height="87" transform="translate(1406.85 449.38) scale(1.02 1)" xlink:href="#New_Symbol"/>
        <use width="87" height="87" transform="translate(1361.26 439.47) scale(1.02 1)" xlink:href="#New_Symbol"/>
        <use width="87" height="87" transform="translate(1319.75 473.51) scale(1.02 1)" xlink:href="#New_Symbol"/>
        <use width="87" height="87" transform="translate(1273.51 489.41) scale(1.02 1)" xlink:href="#New_Symbol"/>
        <use width="87" height="87" transform="translate(1210.96 488.57) scale(1.02 1)" xlink:href="#New_Symbol"/>
        <use width="87" height="87" transform="translate(1155.98 478.05) scale(1.02 1)" xlink:href="#New_Symbol"/>
        <use width="87" height="87" transform="translate(1792.23 72.44) scale(1.02 1)" xlink:href="#New_Symbol"/>
        <use width="87" height="87" transform="translate(1690.6 92.05) scale(1.02 1)" xlink:href="#New_Symbol"/>
        <use width="87" height="87" transform="translate(1628.12 83.99) scale(1.02 1)" xlink:href="#New_Symbol"/>
        <use width="87" height="87" transform="translate(1589.25 115.42) scale(1.02 1)" xlink:href="#New_Symbol"/>
        <use width="87" height="87" transform="translate(1524.99 110.05) scale(1.02 1)" xlink:href="#New_Symbol"/>
        <use width="87" height="87" transform="translate(1461.55 86.02) scale(1.02 1)" xlink:href="#New_Symbol"/>
        <use width="87" height="87" transform="translate(1355.45 90.94) scale(1.02 1)" xlink:href="#New_Symbol"/>
        <use width="87" height="87" transform="translate(1751.27 187.95) scale(1.02 1)" xlink:href="#New_Symbol"/>
        <use width="87" height="87" transform="translate(1555.86 255.56) scale(1.02 1)" xlink:href="#New_Symbol"/>
        <use width="87" height="87" transform="translate(1368.77 289.84) scale(1.02 1)" xlink:href="#New_Symbol"/>
        <use width="87" height="87" transform="translate(1418.6 242.92) scale(1.02 1)" xlink:href="#New_Symbol"/>
        <use width="87" height="87" transform="translate(1309.39 222.25) scale(1.02 1)" xlink:href="#New_Symbol"/>
        <use width="87" height="87" transform="translate(1175.72 219.72) scale(1.02 1)" xlink:href="#New_Symbol"/>
        <use width="87" height="87" transform="translate(1099.14 209.68) scale(1.02 1)" xlink:href="#New_Symbol"/>
        <use width="87" height="87" transform="translate(957.44 171.7) scale(1.02 1)" xlink:href="#New_Symbol"/>
        <use width="87" height="87" transform="translate(849.68 164.08) scale(1.02 1)" xlink:href="#New_Symbol"/>
        <use width="87" height="87" transform="translate(710.74 84.76) scale(1.02 1)" xlink:href="#New_Symbol"/>
        <use width="87" height="87" transform="translate(679.25 148.2) scale(1.02 1)" xlink:href="#New_Symbol"/>
        <use width="87" height="87" transform="translate(788.29 160.36) scale(1.02 1)" xlink:href="#New_Symbol"/>
        <use width="87" height="87" transform="translate(758.64 123.37) scale(1.02 1)" xlink:href="#New_Symbol"/>
        <use width="87" height="87" transform="translate(735.36 159.33) scale(1.02 1)" xlink:href="#New_Symbol"/>
        <use width="87" height="87" transform="translate(702.92 117.56) scale(1.02 1)" xlink:href="#New_Symbol"/>
        <use width="87" height="87" transform="translate(798.12 235.21) scale(1.02 1)" xlink:href="#New_Symbol"/>
        <use width="87" height="87" transform="translate(851.21 260.12) scale(1.02 1)" xlink:href="#New_Symbol"/>
        <use width="87" height="87" transform="translate(877 295.14) scale(1.02 1)" xlink:href="#New_Symbol"/>
        <use width="87" height="87" transform="translate(904.83 318.88) scale(1.02 1)" xlink:href="#New_Symbol"/>
        <use width="87" height="87" transform="translate(-55.24 190.85) scale(1.02 1)" xlink:href="#New_Symbol"/>
        <use width="87" height="87" transform="translate(-20.43 188.28) scale(1.02 1)" xlink:href="#New_Symbol"/>
        <use width="87" height="87" transform="translate(40.12 190.87) scale(1.02 1)" xlink:href="#New_Symbol"/>
        <use width="87" height="87" transform="translate(42.67 230.43) scale(1.02 1)" xlink:href="#New_Symbol"/>
        <use width="87" height="87" transform="translate(481.98 420.56) scale(1.02 1)" xlink:href="#New_Symbol"/>
        <use width="87" height="87" transform="translate(594.68 514.97) scale(1.02 1)" xlink:href="#New_Symbol"/>
        <use width="87" height="87" transform="translate(644.95 525.22) scale(1.02 1)" xlink:href="#New_Symbol"/>
        <use width="87" height="87" transform="translate(663.34 497.55) scale(1.02 1)" xlink:href="#New_Symbol"/>
        <use width="87" height="87" transform="translate(174.3 567.32) scale(1.02 1)" xlink:href="#New_Symbol"/>
        <use width="87" height="87" transform="translate(254.78 582.91) scale(1.02 1)" xlink:href="#New_Symbol"/>
        <use width="87" height="87" transform="translate(346.32 601.77) scale(1.02 1)" xlink:href="#New_Symbol"/>
        <use width="87" height="87" transform="translate(413.22 605.69) scale(1.02 1)" xlink:href="#New_Symbol"/>
        <use width="87" height="87" transform="translate(65.7 475) scale(1.02 1)" xlink:href="#New_Symbol"/>
        <use width="87" height="87" transform="translate(268.73 468.18) scale(1.02 1)" xlink:href="#New_Symbol"/>
        <use width="87" height="87" transform="translate(473.73 469.97) scale(1.02 1)" xlink:href="#New_Symbol"/>
        <use width="87" height="87" transform="translate(737.42 508.92) scale(1.02 1)" xlink:href="#New_Symbol"/>
        <use width="87" height="87" transform="translate(704.93 421.77) scale(1.02 1)" xlink:href="#New_Symbol"/>
        <use width="87" height="87" transform="translate(812.5 576.7) scale(1.02 1)" xlink:href="#New_Symbol"/>
        <use width="87" height="87" transform="translate(966.18 611.57) scale(1.02 1)" xlink:href="#New_Symbol"/>
        <use width="87" height="87" transform="translate(481.5 809.29) scale(1.02 1)" xlink:href="#New_Symbol"/>
        <use width="87" height="87" transform="translate(598.93 748.54) scale(1.02 1)" xlink:href="#New_Symbol"/>
        <use width="87" height="87" transform="translate(667.4 740.36) scale(1.02 1)" xlink:href="#New_Symbol"/>
      </g>
      <g class="cls-7">
        <use width="215" height="215" transform="translate(227.18 78.14) scale(1.02 1)" xlink:href="#New_Symbol_1"/>
        <use width="215" height="215" transform="translate(235.16 125.57) scale(1.02 1)" xlink:href="#New_Symbol_1"/>
        <use width="215" height="215" transform="translate(417.04 74.02) scale(1.02 1)" xlink:href="#New_Symbol_1"/>
        <use width="215" height="215" transform="translate(350.41 67.1) scale(1.02 1)" xlink:href="#New_Symbol_1"/>
        <use width="215" height="215" transform="translate(390.13 26.47) scale(1.02 1)" xlink:href="#New_Symbol_1"/>
        <use width="215" height="215" transform="translate(375.26 134.85) scale(1.02 1)" xlink:href="#New_Symbol_1"/>
        <use width="215" height="215" transform="translate(396.55 221.92) scale(1.02 1)" xlink:href="#New_Symbol_1"/>
        <use width="215" height="215" transform="translate(537 204.97) scale(1.02 1)" xlink:href="#New_Symbol_1"/>
        <use width="215" height="215" transform="translate(636.43 234) scale(1.02 1)" xlink:href="#New_Symbol_1"/>
        <use width="215" height="215" transform="translate(792.69 244.26) scale(1.02 1)" xlink:href="#New_Symbol_1"/>
        <use width="215" height="215" transform="translate(901.42 274.34) scale(1.02 1)" xlink:href="#New_Symbol_1"/>
        <use width="215" height="215" transform="translate(995.12 282.61) scale(1.02 1)" xlink:href="#New_Symbol_1"/>
        <use width="215" height="215" transform="translate(1026.66 229.71) scale(1.02 1)" xlink:href="#New_Symbol_1"/>
        <use width="215" height="215" transform="translate(1169.34 242.43) scale(1.02 1)" xlink:href="#New_Symbol_1"/>
        <use width="215" height="215" transform="translate(434.17 627.24) scale(1.02 1)" xlink:href="#New_Symbol_1"/>
        <use width="215" height="215" transform="translate(312.24 600.5) scale(1.02 1)" xlink:href="#New_Symbol_1"/>
        <use width="215" height="215" transform="translate(245.91 630.31) scale(1.02 1)" xlink:href="#New_Symbol_1"/>
        <use width="215" height="215" transform="translate(356.96 650.6) scale(1.02 1)" xlink:href="#New_Symbol_1"/>
        <use width="215" height="215" transform="translate(443.81 566.14) scale(1.02 1)" xlink:href="#New_Symbol_1"/>
        <use width="215" height="215" transform="translate(362.44 488.89) scale(1.02 1)" xlink:href="#New_Symbol_1"/>
        <use width="215" height="215" transform="translate(293.88 435.56) scale(1.02 1)" xlink:href="#New_Symbol_1"/>
        <use width="215" height="215" transform="translate(598.27 543.4) scale(1.02 1)" xlink:href="#New_Symbol_1"/>
        <use width="215" height="215" transform="translate(740.55 562.17) scale(1.02 1)" xlink:href="#New_Symbol_1"/>
        <use width="215" height="215" transform="translate(800.83 582.41) scale(1.02 1)" xlink:href="#New_Symbol_1"/>
        <use width="215" height="215" transform="translate(797.63 500.12) scale(1.02 1)" xlink:href="#New_Symbol_1"/>
        <use width="215" height="215" transform="translate(826.85 453.11) scale(1.02 1)" xlink:href="#New_Symbol_1"/>
        <use width="215" height="215" transform="translate(867.34 630.05) scale(1.02 1)" xlink:href="#New_Symbol_1"/>
        <use width="215" height="215" transform="translate(1145.57 582.04) scale(1.02 1)" xlink:href="#New_Symbol_1"/>
        <use width="215" height="215" transform="translate(1408.17 495.09) scale(1.02 1)" xlink:href="#New_Symbol_1"/>
        <use width="215" height="215" transform="translate(1455.25 393.21) scale(1.02 1)" xlink:href="#New_Symbol_1"/>
        <use width="215" height="215" transform="translate(1453.12 238.35) scale(1.02 1)" xlink:href="#New_Symbol_1"/>
        <use width="215" height="215" transform="translate(1309.58 202.14) scale(1.02 1)" xlink:href="#New_Symbol_1"/>
        <use width="215" height="215" transform="translate(1168.2 109.87) scale(1.02 1)" xlink:href="#New_Symbol_1"/>
        <use width="215" height="215" transform="translate(1098.64 42.02) scale(1.02 1)" xlink:href="#New_Symbol_1"/>
        <use width="215" height="215" transform="translate(1004.79 0.94) scale(1.02 1)" xlink:href="#New_Symbol_1"/>
        <use width="215" height="215" transform="translate(903.82 -22.31) scale(1.02 1)" xlink:href="#New_Symbol_1"/>
        <use width="215" height="215" transform="translate(817.74 -0.25) scale(1.02 1)" xlink:href="#New_Symbol_1"/>
        <use width="215" height="215" transform="translate(839.77 152.1) scale(1.02 1)" xlink:href="#New_Symbol_1"/>
        <use width="215" height="215" transform="translate(814.25 304.42) scale(1.02 1)" xlink:href="#New_Symbol_1"/>
        <use width="215" height="215" transform="translate(740.26 354.38) scale(1.02 1)" xlink:href="#New_Symbol_1"/>
        <use width="215" height="215" transform="translate(575.79 353.12) scale(1.02 1)" xlink:href="#New_Symbol_1"/>
        <use width="215" height="215" transform="translate(324.91 248.53) scale(1.02 1)" xlink:href="#New_Symbol_1"/>
        <use width="215" height="215" transform="translate(191.91 199.78) scale(1.02 1)" xlink:href="#New_Symbol_1"/>
        <use width="215" height="215" transform="translate(74.88 205.64) scale(1.02 1)" xlink:href="#New_Symbol_1"/>
        <use width="215" height="215" transform="translate(34.03 292.77) scale(1.02 1)" xlink:href="#New_Symbol_1"/>
        <use width="215" height="215" transform="translate(24.85 390.41) scale(1.02 1)" xlink:href="#New_Symbol_1"/>
        <use width="215" height="215" transform="translate(57.28 480.51) scale(1.02 1)" xlink:href="#New_Symbol_1"/>
        <use width="215" height="215" transform="translate(258.49 513.12) scale(1.02 1)" xlink:href="#New_Symbol_1"/>
        <use width="215" height="215" transform="translate(552.79 504.25) scale(1.02 1)" xlink:href="#New_Symbol_1"/>
        <use width="215" height="215" transform="translate(895.81 554.05) scale(1.02 1)" xlink:href="#New_Symbol_1"/>
        <use width="215" height="215" transform="translate(1376.98 566.8) scale(1.02 1)" xlink:href="#New_Symbol_1"/>
        <use width="215" height="215" transform="translate(1574.11 420.14) scale(1.02 1)" xlink:href="#New_Symbol_1"/>
        <use width="215" height="215" transform="translate(1606.52 492.9) scale(1.02 1)" xlink:href="#New_Symbol_1"/>
        <use width="215" height="215" transform="translate(1660.33 446.65) scale(1.02 1)" xlink:href="#New_Symbol_1"/>
        <use width="215" height="215" transform="translate(1651.85 290.88) scale(1.02 1)" xlink:href="#New_Symbol_1"/>
        <use width="215" height="215" transform="translate(1625.46 182.94) scale(1.02 1)" xlink:href="#New_Symbol_1"/>
        <use width="215" height="215" transform="translate(1542.29 137.74) scale(1.02 1)" xlink:href="#New_Symbol_1"/>
        <use width="215" height="215" transform="translate(1399.5 138.01) scale(1.02 1)" xlink:href="#New_Symbol_1"/>
        <use width="215" height="215" transform="translate(1247.18 87.22) scale(1.02 1)" xlink:href="#New_Symbol_1"/>
        <use width="215" height="215" transform="translate(1055.54 97.43) scale(1.02 1)" xlink:href="#New_Symbol_1"/>
        <use width="215" height="215" transform="translate(935.16 72.58) scale(1.02 1)" xlink:href="#New_Symbol_1"/>
        <use width="215" height="215" transform="translate(826.95 69.18) scale(1.02 1)" xlink:href="#New_Symbol_1"/>
        <use width="215" height="215" transform="translate(738.65 67.93) scale(1.02 1)" xlink:href="#New_Symbol_1"/>
        <use width="215" height="215" transform="translate(667.08 64.06) scale(1.02 1)" xlink:href="#New_Symbol_1"/>
        <use width="215" height="215" transform="translate(587.67 105.14) scale(1.02 1)" xlink:href="#New_Symbol_1"/>
        <use width="215" height="215" transform="translate(510.15 246.49) scale(1.02 1)" xlink:href="#New_Symbol_1"/>
        <use width="215" height="215" transform="translate(808.38 832.66) scale(1.02 1)" xlink:href="#New_Symbol_1"/>
        <use width="215" height="215" transform="translate(717.27 855.79) scale(1.02 1)" xlink:href="#New_Symbol_1"/>
        <use width="215" height="215" transform="translate(586.99 803.66) scale(1.02 1)" xlink:href="#New_Symbol_1"/>
        <use width="215" height="215" transform="translate(618.99 844.83) scale(1.02 1)" xlink:href="#New_Symbol_1"/>
        <use width="215" height="215" transform="translate(742.31 802.81) scale(1.02 1)" xlink:href="#New_Symbol_1"/>
        <use width="215" height="215" transform="translate(705.72 746.85) scale(1.02 1)" xlink:href="#New_Symbol_1"/>
        <use width="215" height="215" transform="translate(884.74 758.42) scale(1.02 1)" xlink:href="#New_Symbol_1"/>
        <use width="215" height="215" transform="translate(1025.27 772.07) scale(1.02 1)" xlink:href="#New_Symbol_1"/>
        <use width="215" height="215" transform="translate(1133.54 774.85) scale(1.02 1)" xlink:href="#New_Symbol_1"/>
        <use width="215" height="215" transform="translate(1228.94 737.8) scale(1.02 1)" xlink:href="#New_Symbol_1"/>
        <use width="215" height="215" transform="translate(1244.9 640.87) scale(1.02 1)" xlink:href="#New_Symbol_1"/>
        <use width="215" height="215" transform="translate(1137.94 511.68) scale(1.02 1)" xlink:href="#New_Symbol_1"/>
        <use width="215" height="215" transform="translate(1094.58 485.92) scale(1.02 1)" xlink:href="#New_Symbol_1"/>
        <use width="215" height="215" transform="translate(968.98 553.7) scale(1.02 1)" xlink:href="#New_Symbol_1"/>
        <use width="215" height="215" transform="translate(1057.97 575.55) scale(1.02 1)" xlink:href="#New_Symbol_1"/>
        <use width="215" height="215" transform="translate(1168.35 406.04) scale(1.02 1)" xlink:href="#New_Symbol_1"/>
        <use width="215" height="215" transform="translate(1341.13 375.28) scale(1.02 1)" xlink:href="#New_Symbol_1"/>
        <use width="215" height="215" transform="translate(39.9 761.36) scale(1.02 1)" xlink:href="#New_Symbol_1"/>
        <use width="215" height="215" transform="translate(19.71 705.04) scale(1.02 1)" xlink:href="#New_Symbol_1"/>
        <use width="215" height="215" transform="translate(8.98 590.87) scale(1.02 1)" xlink:href="#New_Symbol_1"/>
        <use width="215" height="215" transform="translate(171.62 803.25) scale(1.02 1)" xlink:href="#New_Symbol_1"/>
        <use width="215" height="215" transform="translate(266.47 762.11) scale(1.02 1)" xlink:href="#New_Symbol_1"/>
        <use width="215" height="215" transform="translate(429.5 722.73) scale(1.02 1)" xlink:href="#New_Symbol_1"/>
        <use width="215" height="215" transform="translate(1485.49 561.78) scale(1.02 1)" xlink:href="#New_Symbol_1"/>
        <use width="215" height="215" transform="translate(1306.4 510.54) scale(1.02 1)" xlink:href="#New_Symbol_1"/>
        <use width="215" height="215" transform="translate(1265.65 442.91) scale(1.02 1)" xlink:href="#New_Symbol_1"/>
        <use width="215" height="215" transform="translate(1116.13 372.23) scale(1.02 1)" xlink:href="#New_Symbol_1"/>
        <use width="215" height="215" transform="translate(943.37 423.91) scale(1.02 1)" xlink:href="#New_Symbol_1"/>
        <use width="215" height="215" transform="translate(724.73 426.36) scale(1.02 1)" xlink:href="#New_Symbol_1"/>
        <use width="215" height="215" transform="translate(617.34 388.71) scale(1.02 1)" xlink:href="#New_Symbol_1"/>
        <use width="215" height="215" transform="translate(469.06 342.31) scale(1.02 1)" xlink:href="#New_Symbol_1"/>
        <use width="215" height="215" transform="translate(388.88 348.63) scale(1.02 1)" xlink:href="#New_Symbol_1"/>
        <use width="215" height="215" transform="translate(257.22 338.69) scale(1.02 1)" xlink:href="#New_Symbol_1"/>
        <use width="215" height="215" transform="translate(177.42 313.65) scale(1.02 1)" xlink:href="#New_Symbol_1"/>
        <use width="215" height="215" transform="translate(159.98 369.42) scale(1.02 1)" xlink:href="#New_Symbol_1"/>
        <use width="215" height="215" transform="translate(172.75 417.39) scale(1.02 1)" xlink:href="#New_Symbol_1"/>
        <use width="215" height="215" transform="translate(1707.25 -27.83) scale(1.02 1)" xlink:href="#New_Symbol_1"/>
        <use width="215" height="215" transform="translate(1566.34 -10.53) scale(1.02 1)" xlink:href="#New_Symbol_1"/>
        <use width="215" height="215" transform="translate(1244.5 143.18) scale(1.02 1)" xlink:href="#New_Symbol_1"/>
        <use width="215" height="215" transform="translate(1636.81 700.11) scale(1.02 1)" xlink:href="#New_Symbol_1"/>
        <use width="215" height="215" transform="translate(1587.21 780.57) scale(1.02 1)" xlink:href="#New_Symbol_1"/>
        <use width="215" height="215" transform="translate(1638.96 758.58) scale(1.02 1)" xlink:href="#New_Symbol_1"/>
        <use width="215" height="215" transform="translate(1581.89 719.01) scale(1.02 1)" xlink:href="#New_Symbol_1"/>
        <use width="215" height="215" transform="translate(1407.53 855.32) scale(1.02 1)" xlink:href="#New_Symbol_1"/>
        <use width="215" height="215" transform="translate(1416.04 767.26) scale(1.02 1)" xlink:href="#New_Symbol_1"/>
        <use width="215" height="215" transform="translate(1447.15 812.31) scale(1.02 1)" xlink:href="#New_Symbol_1"/>
        <use width="215" height="215" transform="translate(1374.21 813.41) scale(1.02 1)" xlink:href="#New_Symbol_1"/>
      </g>
      <g>
        <use width="153" height="153" transform="translate(393.62 255.16) scale(1.05 1.03)" xlink:href="#New_Symbol_2"/>
        <use width="153" height="153" transform="translate(368.11 286.69) scale(1.05 1.03)" xlink:href="#New_Symbol_2"/>
        <use width="153" height="153" transform="translate(604.55 250.84) scale(1.05 1.03)" xlink:href="#New_Symbol_2"/>
        <use width="153" height="153" transform="translate(597.17 211.91) scale(1.05 1.03)" xlink:href="#New_Symbol_2"/>
        <use width="153" height="153" transform="translate(30.79 250.65) scale(1.05 1.03)" xlink:href="#New_Symbol_2"/>
        <use width="153" height="153" transform="translate(45.9 574.36) scale(1.05 1.03)" xlink:href="#New_Symbol_2"/>
        <use width="153" height="153" transform="translate(3.26 570.58) scale(1.05 1.03)" xlink:href="#New_Symbol_2"/>
        <use width="153" height="153" transform="translate(350.98 723.44) scale(1.05 1.03)" xlink:href="#New_Symbol_2"/>
        <use width="153" height="153" transform="translate(328.51 689.69) scale(1.05 1.03)" xlink:href="#New_Symbol_2"/>
        <use width="153" height="153" transform="translate(1168.21 890.14) scale(1.05 1.03)" xlink:href="#New_Symbol_2"/>
        <use width="153" height="153" transform="translate(1784.42 858.73) scale(1.05 1.03)" xlink:href="#New_Symbol_2"/>
        <use width="153" height="153" transform="translate(1748.47 535.33) scale(1.05 1.03)" xlink:href="#New_Symbol_2"/>
        <use width="153" height="153" transform="translate(1773.8 569.73) scale(1.05 1.03)" xlink:href="#New_Symbol_2"/>
        <use width="153" height="153" transform="translate(1614.26 302.66) scale(1.05 1.03)" xlink:href="#New_Symbol_2"/>
        <use width="153" height="153" transform="translate(1132.37 462.76) scale(1.05 1.03)" xlink:href="#New_Symbol_2"/>
        <use width="153" height="153" transform="translate(780.81 531.01) scale(1.05 1.03)" xlink:href="#New_Symbol_2"/>
        <use width="153" height="153" transform="translate(934.91 284.16) scale(1.05 1.03)" xlink:href="#New_Symbol_2"/>
        <use width="153" height="153" transform="translate(945.22 325.46) scale(1.05 1.03)" xlink:href="#New_Symbol_2"/>
        <use width="153" height="153" transform="translate(1070.64 88.17) scale(1.05 1.03)" xlink:href="#New_Symbol_2"/>
        <use width="153" height="153" transform="translate(1078.48 129.9) scale(1.05 1.03)" xlink:href="#New_Symbol_2"/>
        <use width="153" height="153" transform="translate(470.03 451.04) scale(1.05 1.03)" xlink:href="#New_Symbol_2"/>
        <use width="153" height="153" transform="translate(505.21 426.38) scale(1.05 1.03)" xlink:href="#New_Symbol_2"/>
        <use width="153" height="153" transform="translate(967.46 576.83) scale(1.05 1.03)" xlink:href="#New_Symbol_2"/>
        <use width="153" height="153" transform="translate(940.93 609.74) scale(1.05 1.03)" xlink:href="#New_Symbol_2"/>
        <use width="153" height="153" transform="translate(745.83 826.49) scale(1.05 1.03)" xlink:href="#New_Symbol_2"/>
        <use width="153" height="153" transform="translate(555.85 697.35) scale(1.05 1.03)" xlink:href="#New_Symbol_2"/>
        <use width="153" height="153" transform="translate(-14.68 805.16) scale(1.05 1.03)" xlink:href="#New_Symbol_2"/>
        <use width="153" height="153" transform="translate(1314.59 310.76) scale(1.05 1.03)" xlink:href="#New_Symbol_2"/>
        <use width="153" height="153" transform="translate(1318.06 610.89) scale(1.05 1.03)" xlink:href="#New_Symbol_2"/>
        <use width="153" height="153" transform="translate(1308.52 569.43) scale(1.05 1.03)" xlink:href="#New_Symbol_2"/>
        <use width="153" height="153" transform="translate(1449.35 557.31) scale(1.05 1.03)" xlink:href="#New_Symbol_2"/>
        <use width="153" height="153" transform="translate(1489.94 523.19) scale(1.05 1.03)" xlink:href="#New_Symbol_2"/>
        <use width="153" height="153" transform="translate(1447.81 502.58) scale(1.05 1.03)" xlink:href="#New_Symbol_2"/>
        <use width="153" height="153" transform="translate(1258.09 135.64) scale(1.05 1.03)" xlink:href="#New_Symbol_2"/>
        <use width="153" height="153" transform="translate(1247.16 90.21) scale(1.05 1.03)" xlink:href="#New_Symbol_2"/>
        <use width="153" height="153" transform="translate(721.58 101.66) scale(1.05 1.03)" xlink:href="#New_Symbol_2"/>
        <use width="153" height="153" transform="translate(355.14 91.09) scale(1.05 1.03)" xlink:href="#New_Symbol_2"/>
        <use width="153" height="153" transform="translate(389.79 110.74) scale(1.05 1.03)" xlink:href="#New_Symbol_2"/>
        <use width="153" height="153" transform="translate(136.7 118.54) scale(1.05 1.03)" xlink:href="#New_Symbol_2"/>
        <use width="153" height="153" transform="translate(177.7 140.97) scale(1.05 1.03)" xlink:href="#New_Symbol_2"/>
        <use width="153" height="153" transform="translate(159.99 195.11) scale(1.05 1.03)" xlink:href="#New_Symbol_2"/>
        <use width="153" height="153" transform="translate(1013.94 801.64) scale(1.05 1.03)" xlink:href="#New_Symbol_2"/>
        <use width="153" height="153" transform="translate(1087.21 821.29) scale(1.05 1.03)" xlink:href="#New_Symbol_2"/>
        <use width="153" height="153" transform="translate(1146.83 818.33) scale(1.05 1.03)" xlink:href="#New_Symbol_2"/>
        <use width="153" height="153" transform="translate(643.46 640.13) scale(1.05 1.03)" xlink:href="#New_Symbol_2"/>
        <use width="153" height="153" transform="translate(691.93 640.42) scale(1.05 1.03)" xlink:href="#New_Symbol_2"/>
        <use width="153" height="153" transform="translate(748.82 661.9) scale(1.05 1.03)" xlink:href="#New_Symbol_2"/>
        <use width="153" height="153" transform="translate(1394.48 830.02) scale(1.05 1.03)" xlink:href="#New_Symbol_2"/>
        <use width="153" height="153" transform="translate(1476.39 835.2) scale(1.05 1.03)" xlink:href="#New_Symbol_2"/>
        <use width="153" height="153" transform="translate(1753.29 122.25) scale(1.05 1.03)" xlink:href="#New_Symbol_2"/>
        <use width="153" height="153" transform="translate(1657.02 144.36) scale(1.05 1.03)" xlink:href="#New_Symbol_2"/>
        <use width="153" height="153" transform="translate(1672.46 184.53) scale(1.05 1.03)" xlink:href="#New_Symbol_2"/>
        <use width="153" height="153" transform="translate(1536.13 45) scale(1.05 1.03)" xlink:href="#New_Symbol_2"/>
        <use width="153" height="153" transform="translate(1461.18 66.15) scale(1.05 1.03)" xlink:href="#New_Symbol_2"/>
        <use width="153" height="153" transform="translate(1465.79 111.67) scale(1.05 1.03)" xlink:href="#New_Symbol_2"/>
        <use width="153" height="153" transform="translate(218.32 832.94) scale(1.05 1.03)" xlink:href="#New_Symbol_2"/>
        <use width="153" height="153" transform="translate(195.32 896.36) scale(1.05 1.03)" xlink:href="#New_Symbol_2"/>
        <use width="153" height="153" transform="translate(276.19 916.7) scale(1.05 1.03)" xlink:href="#New_Symbol_2"/>
        <use width="153" height="153" transform="translate(415.43 898.54) scale(1.05 1.03)" xlink:href="#New_Symbol_2"/>
        <use width="153" height="153" transform="translate(500.51 921.66) scale(1.05 1.03)" xlink:href="#New_Symbol_2"/>
        <use width="153" height="153" transform="translate(497.53 878.4) scale(1.05 1.03)" xlink:href="#New_Symbol_2"/>
        <use width="153" height="153" transform="translate(-4.15 382.97) scale(1.05 1.03)" xlink:href="#New_Symbol_2"/>
        <use width="153" height="153" transform="translate(40.19 371.2) scale(1.05 1.03)" xlink:href="#New_Symbol_2"/>
        <use width="153" height="153" transform="translate(58.39 439.91) scale(1.05 1.03)" xlink:href="#New_Symbol_2"/>
        <use width="153" height="153" transform="translate(1695.6 868.38) scale(1.05 1.03)" xlink:href="#New_Symbol_2"/>
        <use width="153" height="153" transform="translate(1684.78 768.61) scale(1.05 1.03)" xlink:href="#New_Symbol_2"/>
        <use width="153" height="153" transform="translate(1639.74 697.24) scale(1.05 1.03)" xlink:href="#New_Symbol_2"/>
        <use width="153" height="153" transform="translate(1674.29 644.34) scale(1.05 1.03)" xlink:href="#New_Symbol_2"/>
        <use width="153" height="153" transform="translate(1632.74 625.58) scale(1.05 1.03)" xlink:href="#New_Symbol_2"/>
        <use width="153" height="153" transform="translate(-12.95 59.8) scale(1.05 1.03)" xlink:href="#New_Symbol_2"/>
        <use width="153" height="153" transform="translate(-24.5 123.61) scale(1.05 1.03)" xlink:href="#New_Symbol_2"/>
        <use width="153" height="153" transform="translate(18.66 104.72) scale(1.05 1.03)" xlink:href="#New_Symbol_2"/>
        <use width="153" height="153" transform="translate(1374.8) scale(1.05 1.03)" xlink:href="#New_Symbol_2"/>
        <use width="153" height="153" transform="translate(1337.37 19.03) scale(1.05 1.03)" xlink:href="#New_Symbol_2"/>
        <use width="153" height="153" transform="translate(1362.1 108.69) scale(1.05 1.03)" xlink:href="#New_Symbol_2"/>
        <use width="153" height="153" transform="translate(581.92 4.68) scale(1.05 1.03)" xlink:href="#New_Symbol_2"/>
        <use width="153" height="153" transform="translate(542.46 26.95) scale(1.05 1.03)" xlink:href="#New_Symbol_2"/>
        <use width="153" height="153" transform="translate(583.53 69.67) scale(1.05 1.03)" xlink:href="#New_Symbol_2"/>
      </g>
      <g>
        <g class="cls-8">
          <path class="cls-9" d="M1112.29,201.71c-2.3-1.85-6.33-2.56-10-2-.93-8.56-3.25-15-5.15-18.21a31.34,31.34,0,0,0-5.45-6.33,13,13,0,0,0-2.19-1.58,25.67,25.67,0,0,0-7.64-2.26,111.54,111.54,0,0,0-12-.8,66.21,66.21,0,0,0-21.61-28c7.5-1.2,17.62-10,17.73-17.57.25-14.1-28.92-25.52-29.52-24.92-.3.3,5.46,4.27,13.23,12.6,4.84,5,5.64,7.5,4.79,13.09-.47,3.84-.71,5.76-2.42,7.53-1,1.17-5.76,4.09-7.06,7a54.37,54.37,0,0,0-60.65,1c-1.77-2.86-7.78-5-9.15-6-2.16-1.41-2.92-3.25-4.43-6.91-2.35-5.3-2.26-7.91,1.13-13.63,5.34-9.51,9.9-14.42,9.53-14.65-.76-.48-26.23,15.87-22.14,29.58,2.15,7.3,14.2,14,21.88,14-12.45,9.74-21.49,24.64-24.65,42A29.92,29.92,0,0,1,945.59,184a19,19,0,0,1-6.67-4.16,15.56,15.56,0,0,1-5-7.24,10.89,10.89,0,0,1,.23-6.76c1.15-3.2,1.89-5,4.48-6.06,4.2-1.63,10-.16,14.7-1.25a5.82,5.82,0,0,0,2-.78,2.07,2.07,0,0,0,1-1.8c-.1-2.89-6-4.82-10.7-4.11a15,15,0,0,0-10,5.9c-1.12,1.55-.42-7.81-5.22-9.15-2-.54-4.47.1-6.5.86,0,0-.91.74-1,1.41-.07.5.32.81.71,1.28.78.94.25,1.62,1.08,2.56a14.24,14.24,0,0,1,2.86,4.95c-2.1-2.8-5.43-6.07-10.58-5.88a4.72,4.72,0,0,0-1.73.34,2.23,2.23,0,0,0-1,1c-1.18,2.09-.72,4.54,1.55,6.28s6.24,2.41,9.92,1.92c.91,8.08,3.2,14.2,5.07,17.19a29.46,29.46,0,0,0,5.38,6,12.34,12.34,0,0,0,2.16,1.49,22.29,22.29,0,0,0,7.53,2.13,49.12,49.12,0,0,0,10,.45,76.06,76.06,0,0,0-.5,8.72c0,34.65,23.11,63.22,52.92,67.22a3.07,3.07,0,0,0-.85,2.07v16c0,1.91,1.91,3.46,4.26,3.46h2.21c2.36,0,4.26-1.55,4.26-3.46v-16a3,3,0,0,0-.5-1.63c1,0,2-.11,3-.2a2.69,2.69,0,0,0-.18,1v16c0,1.91,1.91,3.46,4.26,3.46h2.21c2.36,0,4.26-1.55,4.26-3.46v-16a3.2,3.2,0,0,0-1.5-2.62c23-6.29,40.9-27.51,45-54.06a14.69,14.69,0,0,0,7.41.84,15.1,15.1,0,0,0,10.18-6.26c1.13-1.64.42,8.28,5.29,9.7,2,.58,4.53-.11,6.59-.91a3.23,3.23,0,0,0,1-1.5c.07-.52-.33-.85-.73-1.35-.79-1-.26-1.71-1.09-2.71a15.42,15.42,0,0,1-2.9-5.25c2.13,3,5.5,6.43,10.72,6.23a4.68,4.68,0,0,0,1.76-.36,2.27,2.27,0,0,0,1-1A5.11,5.11,0,0,0,1112.29,201.71ZM1093.58,197c-1.16,3.39-1.91,5.35-4.53,6.42-3.91,1.58-9.21.41-13.71,1.1.12-1.74.18-3.5.18-5.27a75.25,75.25,0,0,0-4.14-24.75l1.07,1.61a27.91,27.91,0,0,1,9.52,1.65,20.63,20.63,0,0,1,2.58,1.2,21.75,21.75,0,0,1,4.17,3.2,16.61,16.61,0,0,1,5.1,7.68A12,12,0,0,1,1093.58,197Z"/>
          <path class="cls-10" d="M1112.29,201.71c-2.3-1.85-6.33-2.56-10-2-.93-8.56-3.25-15-5.15-18.21a31.34,31.34,0,0,0-5.45-6.33,13,13,0,0,0-2.19-1.58,25.67,25.67,0,0,0-7.64-2.26,111.54,111.54,0,0,0-12-.8,66.21,66.21,0,0,0-21.61-28c7.5-1.2,17.62-10,17.73-17.57.25-14.1-28.92-25.52-29.52-24.92-.3.3,5.46,4.27,13.23,12.6,4.84,5,5.64,7.5,4.79,13.09-.47,3.84-.71,5.76-2.42,7.53-1,1.17-5.76,4.09-7.06,7a54.37,54.37,0,0,0-60.65,1c-1.77-2.86-7.78-5-9.15-6-2.16-1.41-2.92-3.25-4.43-6.91-2.35-5.3-2.26-7.91,1.13-13.63,5.34-9.51,9.9-14.42,9.53-14.65-.76-.48-26.23,15.87-22.14,29.58,2.15,7.3,14.2,14,21.88,14-12.45,9.74-21.49,24.64-24.65,42A29.92,29.92,0,0,1,945.59,184a19,19,0,0,1-6.67-4.16,15.56,15.56,0,0,1-5-7.24,10.89,10.89,0,0,1,.23-6.76c1.15-3.2,1.89-5,4.48-6.06,4.2-1.63,10-.16,14.7-1.25a5.82,5.82,0,0,0,2-.78,2.07,2.07,0,0,0,1-1.8c-.1-2.89-6-4.82-10.7-4.11a15,15,0,0,0-10,5.9c-1.12,1.55-.42-7.81-5.22-9.15-2-.54-4.47.1-6.5.86,0,0-.91.74-1,1.41-.07.5.32.81.71,1.28.78.94.25,1.62,1.08,2.56a14.24,14.24,0,0,1,2.86,4.95c-2.1-2.8-5.43-6.07-10.58-5.88a4.72,4.72,0,0,0-1.73.34,2.23,2.23,0,0,0-1,1c-1.18,2.09-.72,4.54,1.55,6.28s6.24,2.41,9.92,1.92c.91,8.08,3.2,14.2,5.07,17.19a29.46,29.46,0,0,0,5.38,6,12.34,12.34,0,0,0,2.16,1.49,22.29,22.29,0,0,0,7.53,2.13,49.12,49.12,0,0,0,10,.45,76.06,76.06,0,0,0-.5,8.72c0,34.65,23.11,63.22,52.92,67.22a3.07,3.07,0,0,0-.85,2.07v16c0,1.91,1.91,3.46,4.26,3.46h2.21c2.36,0,4.26-1.55,4.26-3.46v-16a3,3,0,0,0-.5-1.63c1,0,2-.11,3-.2a2.69,2.69,0,0,0-.18,1v16c0,1.91,1.91,3.46,4.26,3.46h2.21c2.36,0,4.26-1.55,4.26-3.46v-16a3.2,3.2,0,0,0-1.5-2.62c23-6.29,40.9-27.51,45-54.06a14.69,14.69,0,0,0,7.41.84,15.1,15.1,0,0,0,10.18-6.26c1.13-1.64.42,8.28,5.29,9.7,2,.58,4.53-.11,6.59-.91a3.23,3.23,0,0,0,1-1.5c.07-.52-.33-.85-.73-1.35-.79-1-.26-1.71-1.09-2.71a15.42,15.42,0,0,1-2.9-5.25c2.13,3,5.5,6.43,10.72,6.23a4.68,4.68,0,0,0,1.76-.36,2.27,2.27,0,0,0,1-1A5.11,5.11,0,0,0,1112.29,201.71ZM1093.58,197c-1.16,3.39-1.91,5.35-4.53,6.42-3.91,1.58-9.21.41-13.71,1.1.12-1.74.18-3.5.18-5.27a75.25,75.25,0,0,0-4.14-24.75l1.07,1.61a27.91,27.91,0,0,1,9.52,1.65,20.63,20.63,0,0,1,2.58,1.2,21.75,21.75,0,0,1,4.17,3.2,16.61,16.61,0,0,1,5.1,7.68A12,12,0,0,1,1093.58,197Z"/>
        </g>
        <g>
          <ellipse class="cls-11" cx="1014" cy="168.58" rx="16" ry="12.99"/>
          <ellipse class="cls-12" cx="1014" cy="172.43" rx="8.04" ry="7.47"/>
        </g>
        <g>
          <path class="cls-13" d="M1026.82,209.41a6.3,6.3,0,0,1,3.06,1,3.58,3.58,0,0,1,1.31,2c3.14,11.81-3.49,16.95-3.49,16.95a17.45,17.45,0,0,1-8.91,3.53c-1.11.12-5.39.74-9.06-1.22-6.6-3.52-7.45-10.78-7.87-15.07-.18-1.85-.51-3,.26-4.08,2.17-3.12,10.49-3.45,10.5-3.46s3.69-.09,7.44-.1A49.07,49.07,0,0,1,1026.82,209.41Z"/>
          <path class="cls-11" d="M1007.17,209.88c5.11,7.93,7.35,11.22,8.41,12.67.08.12,2.1,2.88,2.1,2.88l1.18,2.53c2-4.25,3.91-8.75,5.69-13.5q1-2.76,1.94-5.44"/>
        </g>
        <path class="cls-10" d="M992.36,160.45a16.66,16.66,0,0,1,4.3-5c5.39-4.24,12.14-4.66,14.25-4.73"/>
        <path class="cls-14" d="M1000.11,239.2a.73.73,0,0,0-.25,0,5,5,0,0,0,.92.32c3.14.89,7.12,1.88,11.17,2.77.07,0,.1,0,.11,0a10.94,10.94,0,0,0-2.21-.69c-2.57-.58-3.52.17-5.42-.29S1001,239.33,1000.11,239.2Z"/>
      </g>
      <g>
        <image class="cls-15" width="1248" height="414" transform="translate(326.5 269)" xlink:href="start1.png"/>
        <g>
          <image class="cls-16" width="1222" height="390" transform="translate(332.5 275)" xlink:href="start2.png"/>
          <g>
            <path class="cls-17" d="M411.78,563.19q19.38-17.25,39.6-33,25,31.76,50,63.6-4.08,3.18-8.11,6.42-4.62-2.91-9.28-5.77c-1.71,12.42-6.21,21.8-13.81,28.49-12.51,11-26.42,15.13-42.62,12.4s-33.1-12.13-50.47-28.92c-16.88-16.32-26.68-33.55-28.54-52.08s4.55-34.65,19-47.38c19.1-16.77,40.19-15.3,61.8,3.57q-4,9.1-7.74,18.25L419.28,526l-5.43-6.05c-12.21-12.76-23.57-14.89-33.75-6-7.45,6.5-9.33,14.55-5.6,23.82s14.38,23.21,31.81,41.87q24.44,26.15,36,33c7.68,4.57,14.07,4.54,19.33-.09,6.18-5.42,5.44-12.61-2.35-21.75q-12-14-24-28-6.78,5.74-13.44,11.68Z"/>
            <path class="cls-17" d="M467.45,430.77c33.06-21.38,63.05-7.81,88.12,37.2,25.17,45.27,23.43,75.21-3.63,92.75-27,17.74-55.83,7.12-88.27-34.74C432.76,486.25,433.32,453.26,467.45,430.77Zm5.72,10.55c-6.06,4-7.58,10.47-4.54,19.32s11.92,23.79,26.49,44.85,25.35,34.69,32.26,40.92,12.87,7.65,18,4.31,6.17-9.35,3.2-18.16-11.22-24.08-24.86-45.76-23.88-35.61-30.89-41.92S479.23,437.36,473.17,441.32Z"/>
            <path class="cls-17" d="M567.58,377.41Q597.19,438,626.49,498.67q20.63-9.87,41.73-18.4,2.84,7,5.68,13.93a717.47,717.47,0,0,0-69.14,32.32q-35.46-66-71.31-131.8Q550.36,385.66,567.58,377.41Z"/>
            <path class="cls-17" d="M680.1,491.73q-27.65-69.64-55.69-139.13,25.25-9.94,51-18.29c36.92-11.8,62,8.34,74.13,56.76s2.16,76.1-28.84,86.08Q700.21,483.83,680.1,491.73Zm25.39-22.57q4-1.37,7.93-2.68c7.28-2.41,11-8.27,11.14-17.79s-3.11-25.57-10-48.17-13.31-37.73-19.25-45.32-13.28-10-21.87-7.18q-4.65,1.55-9.28,3.14Q684.93,410.11,705.49,469.16Z"/>
            <path class="cls-17" d="M923.83,292q2.4,74.88,4.37,149.75-15,.36-30,1.34-3.52-52-7.26-104-8.2,52.79-13.59,105.67-8.66.82-17.29,1.84-16.83-49.62-36.83-98.5,7.88,50.65,15.54,101.34c-3.45.51-6.89,1-10.34,1.61q-12.28-73.9-25-147.73,18.86-3.09,37.8-5.36Q858,341.46,872.3,385.55q5.44-45.93,13.05-91.79Q904.57,292.44,923.83,292Z"/>
            <path class="cls-17" d="M999.34,290.69c38.17,2.47,53.94,31.12,47.31,82.21-6.67,51.35-25.68,74.46-57,72.46-31.33-1.8-47.36-27.62-48.27-80.56C940.47,314.47,959.74,288.45,999.34,290.69Zm-1.68,11.88c-7-.42-12,3.89-14.73,12.81s-4.53,26.2-5.42,51.79-.42,42.95,1.33,52.07,5.57,13.82,11.51,14.18,10.26-3.84,13.07-12.69,5.26-26,7.23-51.56,2.07-42.82.27-52.06S1004.67,303,997.66,302.57Z"/>
            <path class="cls-17" d="M1165.55,319.61q-18.29,72.64-37,145.2-11.65-3-23.37-5.65A943.08,943.08,0,0,0,1075.57,357q-7.24,46.86-14.67,93.69-5.19-.82-10.39-1.59,10.65-74.15,20.88-148.36,11.83,1.71,23.63,3.74a963.75,963.75,0,0,1,34.44,111.69q12-49.8,23.74-99.63Q1159.38,318,1165.55,319.61Z"/>
            <path class="cls-17" d="M1252.81,392q-8.57-1.36-17.09-2.55a59.5,59.5,0,0,0,4.51-9.1c6-16.3.45-27.84-17-33.76-13.76-4.62-22.42-.92-25.87,10.56-2.61,8.64,2.7,18.25,15.25,29.31,24.3,21.46,30.69,44.22,21.67,66.6-5.27,13.19-13.08,22.3-23.12,27.63s-20.63,6-32.12,2.07c-25.32-8.52-34.46-25.61-27-53.47q.93-3.37,2.71-8.24,8.42,0,16.9.1a86.35,86.35,0,0,0-6.5,15.36c-5.22,17.87-.35,28.9,14.47,33.83,11.87,4,20-.08,24.62-12.68,3.37-9.34-1-20.35-13.81-32.54C1171.94,407.69,1165,388,1171.21,365c3.56-13,10.4-22.37,20.86-27.87s22.56-6.08,35.92-1.56C1255.57,345,1263.68,364.52,1252.81,392Z"/>
            <path class="cls-17" d="M1372.62,402.52l-7.23,13.19q-14.1-7.87-28.44-15.19-30.17,60.28-60.65,120.41-15.16-7.75-30.59-14.74,27.66-61.49,55-123.1-14.67-6.63-29.51-12.68l5.58-14A871.83,871.83,0,0,1,1372.62,402.52Z"/>
            <path class="cls-17" d="M1455.08,454.81l-8.64,12.31q-19.51-14-39.61-26.71-12,19.24-24,38.46,16,10.17,31.62,21.14-4.28,6.18-8.56,12.37-15.33-10.78-31-20.75-15.77,25.17-31.57,50.3,20.24,12.87,39.81,27.18l-8.81,12.18a724.85,724.85,0,0,0-66.75-43.41q37.08-65.11,73.8-130.43A874.71,874.71,0,0,1,1455.08,454.81Z"/>
            <path class="cls-17" d="M1382.57,587.44q44.78-60.06,89.22-120.38,23.52,17.69,46.13,37.17c11.76,10.15,18.64,21.27,20.61,32.79s-1.32,21.58-9.5,30.15c-12.58,13.13-27.44,15-44.64,6.75,4.25,9.38,5.59,16.86,4.23,22.32s-6.55,13.67-15.6,24.56q-16.17,19.47-18.29,28.75-13.14-12.88-26.77-25c2.86-6.76,7.66-14.08,14.47-21.93q2.85-3.42,5.69-6.83l7.2-8.58c11.33-13,12.58-23.48,3.59-31q-2.4-2-4.82-4-22.72,27.93-45.53,55.79Q1395.74,597.37,1382.57,587.44Zm79.35-44.88,5.76,4.8c10.72,9.06,21.63,7.36,33-5.59s11.37-24.49-.11-34.17q-3.06-2.57-6.13-5.1Q1478.19,522.54,1461.92,542.56Z"/>
          </g>
        </g>
      </g>
    </g>
  </g>
</svg>
